<?xml version="1.0" encoding="UTF-8"?>
<svg width="350px" height="200px" viewBox="0 0 350 200" version="1.1" xmlns="http://www.w3.org/2000/svg" xmlns:xlink="http://www.w3.org/1999/xlink">
    <!-- Generator: Sketch 48.1 (47250) - http://www.bohemiancoding.com/sketch -->
    <title>balkanruby-header-logo</title>
    <desc>Created with Sketch.</desc>
    <defs></defs>
    <g id="Page-1" stroke="none" stroke-width="1" fill="none" fill-rule="evenodd">
        <g id="balkanruby-header-logo">
            <g id="ruby" transform="translate(138.000000, 30.000000)" stroke="#000000" stroke-width="2">
                <path d="M37.506053,87.8900558 L68.5018891,41.6728156" id="Shape"></path>
                <path d="M37.506053,87.8900558 L70.586906,59.2884965" id="Shape"></path>
                <path d="M37.506053,87.8900558 L7.08955662,41.6728156" id="Shape"></path>
                <path d="M7.08955662,41.6728156 L56.6879229,59.2884965" id="Shape"></path>
                <path d="M68.5018891,41.6728156 L73.9985734,29.5502521" id="Shape"></path>
                <path d="M73.9985734,29.5502521 L55.8024192,21.7841206" id="Shape"></path>
                <path d="M70.586906,59.2884965 L73.9985734,29.5502521" id="Shape"></path>
                <path d="M68.5018891,41.6728156 L70.586906,59.2884965" id="Shape"></path>
                <path d="M55.8024192,21.7841206 L69.5444868,15.3439141" id="Shape"></path>
                <path d="M69.5444868,15.3439141 L73.9985734,29.5502521" id="Shape"></path>
                <path d="M8.03729157,19.5111066 L23.9588819,10.797886" id="Shape"></path>
                <path d="M7.08955662,53.795201 L8.03729157,19.5111066" id="Shape"></path>
                <path d="M7.08955662,41.6728156 L0.0763180723,28.4137451" id="Shape"></path>
                <path d="M0.0763180723,28.4137451 L8.03729157,19.5111066" id="Shape"></path>
                <path d="M23.9588819,10.797886 L55.8024192,21.7841206" id="Shape"></path>
                <path d="M8.03729157,19.5111066 L23.9588819,2.86496709" id="Shape"></path>
                <path d="M23.9588819,2.86496709 L55.8024192,0.00124734158" id="Shape"></path>
                <path d="M55.8024192,0.00124734158 L69.5444868,15.3439141" id="Shape"></path>
                <path d="M68.5018891,41.6728156 L41.1126169,53.795201" id="Shape"></path>
                <path d="M41.1126169,53.795201 L37.506053,87.8900558" id="Shape"></path>
                <path d="M37.506053,87.8900558 L7.08955662,53.795201" id="Shape"></path>
                <path d="M7.08955662,53.795201 L0.0763180723,28.4137451" id="Shape"></path>
            </g>
            <path d="M13,172.602837 L13,131.297872 L27.8368794,131.297872 C33.1513268,131.297872 37.1938396,132.271858 39.964539,134.219858 C42.7352384,136.167858 44.1205674,138.995253 44.1205674,142.702128 C44.1205674,144.839254 43.6288465,146.664295 42.6453901,148.177305 C41.6619336,149.690315 40.2151396,150.806143 38.3049645,151.524823 C40.4610037,152.092201 42.1158335,153.151292 43.2695035,154.702128 C44.4231736,156.252963 45,158.144197 45,160.375887 C45,164.423188 43.7186889,167.463347 41.1560284,169.496454 C38.5933678,171.529561 34.7967155,172.565012 29.7659574,172.602837 L13,172.602837 Z M22.9574468,155.042553 L22.9574468,164.943262 L29.4822695,164.943262 C31.2789688,164.943262 32.6595696,164.531919 33.6241135,163.70922 C34.5886573,162.886521 35.070922,161.72814 35.070922,160.234043 C35.070922,156.791945 33.3593552,155.061466 29.9361702,155.042553 L22.9574468,155.042553 Z M22.9574468,148.51773 L28.1489362,148.51773 C30.3238879,148.498818 31.8746999,148.101659 32.8014184,147.326241 C33.728137,146.550824 34.1914894,145.406627 34.1914894,143.893617 C34.1914894,142.153656 33.6903123,140.900713 32.6879433,140.134752 C31.6855742,139.36879 30.0685691,138.985816 27.8368794,138.985816 L22.9574468,138.985816 L22.9574468,148.51773 Z M67.3262411,172.602837 C66.9858139,171.97872 66.6832165,171.061472 66.4184397,169.851064 C64.6595657,172.063841 62.2009614,173.170213 59.0425532,173.170213 C56.1489217,173.170213 53.6903174,172.295517 51.6666667,170.546099 C49.6430159,168.796682 48.6312057,166.598122 48.6312057,163.950355 C48.6312057,160.621733 49.8605078,158.106391 52.3191489,156.404255 C54.7777901,154.702119 58.3522224,153.851064 63.0425532,153.851064 L65.9929078,153.851064 L65.9929078,152.234043 C65.9929078,149.416062 64.7730618,148.007092 62.3333333,148.007092 C60.0638184,148.007092 58.929078,149.12292 58.929078,151.35461 L49.3687943,151.35461 C49.3687943,148.385328 50.631193,145.974005 53.1560284,144.120567 C55.6808637,142.26713 58.9006896,141.340426 62.8156028,141.340426 C66.730516,141.340426 69.8226837,142.295499 72.0921986,144.205674 C74.3617135,146.115849 75.5248224,148.735208 75.5815603,152.06383 L75.5815603,165.652482 C75.6193855,168.470463 76.0543694,170.62647 76.8865248,172.120567 L76.8865248,172.602837 L67.3262411,172.602837 Z M61.3404255,166.361702 C62.5319209,166.361702 63.5200906,166.106386 64.3049645,165.595745 C65.0898384,165.085104 65.6524806,164.508277 65.9929078,163.865248 L65.9929078,158.957447 L63.212766,158.957447 C59.8841441,158.957447 58.2198582,160.451522 58.2198582,163.439716 C58.2198582,164.309697 58.5129994,165.014182 59.0992908,165.553191 C59.6855821,166.092201 60.4326196,166.361702 61.3404255,166.361702 Z M90.9574468,172.602837 L81.3687943,172.602837 L81.3687943,129.028369 L90.9574468,129.028369 L90.9574468,172.602837 Z M109.170213,161.170213 L106.475177,163.865248 L106.475177,172.602837 L96.9148936,172.602837 L96.9148936,129 L106.475177,129 L106.475177,152.148936 L107.439716,150.87234 L114.64539,141.907801 L126.106383,141.907801 L115.35461,154.531915 L126.815603,172.602837 L115.865248,172.602837 L109.170213,161.170213 Z M145.907801,172.602837 C145.567374,171.97872 145.264777,171.061472 145,169.851064 C143.241126,172.063841 140.782522,173.170213 137.624113,173.170213 C134.730482,173.170213 132.271878,172.295517 130.248227,170.546099 C128.224576,168.796682 127.212766,166.598122 127.212766,163.950355 C127.212766,160.621733 128.442068,158.106391 130.900709,156.404255 C133.35935,154.702119 136.933783,153.851064 141.624113,153.851064 L144.574468,153.851064 L144.574468,152.234043 C144.574468,149.416062 143.354622,148.007092 140.914894,148.007092 C138.645379,148.007092 137.510638,149.12292 137.510638,151.35461 L127.950355,151.35461 C127.950355,148.385328 129.212753,145.974005 131.737589,144.120567 C134.262424,142.26713 137.48225,141.340426 141.397163,141.340426 C145.312076,141.340426 148.404244,142.295499 150.673759,144.205674 C152.943274,146.115849 154.106383,148.735208 154.163121,152.06383 L154.163121,165.652482 C154.200946,168.470463 154.63593,170.62647 155.468085,172.120567 L155.468085,172.602837 L145.907801,172.602837 Z M139.921986,166.361702 C141.113481,166.361702 142.101651,166.106386 142.886525,165.595745 C143.671399,165.085104 144.234041,164.508277 144.574468,163.865248 L144.574468,158.957447 L141.794326,158.957447 C138.465704,158.957447 136.801418,160.451522 136.801418,163.439716 C136.801418,164.309697 137.09456,165.014182 137.680851,165.553191 C138.267142,166.092201 139.01418,166.361702 139.921986,166.361702 Z M168.234043,141.907801 L168.546099,145.510638 C170.664313,142.730483 173.58627,141.340426 177.312057,141.340426 C180.50829,141.340426 182.895973,142.295499 184.475177,144.205674 C186.054381,146.115849 186.87234,148.990525 186.929078,152.829787 L186.929078,172.602837 L177.340426,172.602837 L177.340426,153.22695 C177.340426,151.676115 177.028372,150.536647 176.404255,149.808511 C175.780139,149.080375 174.645398,148.716312 173,148.716312 C171.12765,148.716312 169.737593,149.453893 168.829787,150.929078 L168.829787,172.602837 L159.269504,172.602837 L159.269504,141.907801 L168.234043,141.907801 Z M222.475177,158.021277 L217.085106,158.021277 L217.085106,172.602837 L207.12766,172.602837 L207.12766,131.297872 L223.382979,131.297872 C228.281348,131.297872 232.111097,132.385332 234.87234,134.560284 C237.633584,136.735235 239.014184,139.808491 239.014184,143.780142 C239.014184,146.654861 238.43263,149.037816 237.269504,150.929078 C236.106377,152.82034 234.286064,154.35224 231.808511,155.524823 L240.432624,172.177305 L240.432624,172.602837 L229.765957,172.602837 L222.475177,158.021277 Z M217.085106,150.333333 L223.382979,150.333333 C225.274241,150.333333 226.697395,149.836884 227.652482,148.843972 C228.60757,147.851059 229.085106,146.46573 229.085106,144.687943 C229.085106,142.910157 228.602842,141.515371 227.638298,140.503546 C226.673754,139.491721 225.255329,138.985816 223.382979,138.985816 L217.085106,138.985816 L217.085106,150.333333 Z M262.87234,169.283688 C260.84869,171.874717 258.115856,173.170213 254.673759,173.170213 C251.307312,173.170213 248.758874,172.191499 247.028369,170.234043 C245.297864,168.276586 244.432624,165.463375 244.432624,161.794326 L244.432624,141.907801 L253.992908,141.907801 L253.992908,161.851064 C253.992908,164.479919 255.269491,165.794326 257.822695,165.794326 C260.016559,165.794326 261.576828,165.009464 262.503546,163.439716 L262.503546,141.907801 L272.120567,141.907801 L272.120567,172.602837 L263.156028,172.602837 L262.87234,169.283688 Z M305.851064,157.510638 C305.851064,162.541396 304.810885,166.40897 302.730496,169.113475 C300.650108,171.81798 297.718695,173.170213 293.93617,173.170213 C290.815587,173.170213 288.300246,171.931454 286.390071,169.453901 L285.992908,172.602837 L277.425532,172.602837 L277.425532,129.028369 L286.985816,129.028369 L286.985816,144.375887 C288.763602,142.352236 291.061452,141.340426 293.879433,141.340426 C297.699783,141.340426 300.650108,142.71157 302.730496,145.453901 C304.810885,148.196231 305.851064,152.054349 305.851064,157.028369 L305.851064,157.510638 Z M296.262411,156.914894 C296.262411,153.964524 295.86998,151.860526 295.085106,150.602837 C294.300232,149.345147 293.094571,148.716312 291.468085,148.716312 C289.312046,148.716312 287.817971,149.538999 286.985816,151.184397 L286.985816,163.382979 C287.799058,165.009464 289.312046,165.822695 291.524823,165.822695 C293.775425,165.822695 295.203307,164.725779 295.808511,162.531915 C296.111113,161.453895 296.262411,159.581574 296.262411,156.914894 Z M322.021277,159.212766 L327.12766,141.907801 L337.368794,141.907801 L324.858156,177.737589 L324.319149,179.042553 C322.541362,183.014204 319.401914,185 314.900709,185 C313.652476,185 312.338068,184.810877 310.957447,184.432624 L310.957447,177.595745 L312.205674,177.595745 C313.54847,177.595745 314.574465,177.401893 315.283688,177.014184 C315.992911,176.626476 316.517729,175.931447 316.858156,174.929078 L317.624113,172.886525 L306.957447,141.907801 L317.170213,141.907801 L322.021277,159.212766 Z" id="Balkan-Ruby" fill="#000000"></path>
        </g>
    </g>
</svg>