<svg xmlns="http://www.w3.org/2000/svg" version="1.1" width="166" height="547">
<path d="M 5.317383 31.623047 Q 5.317383 30.612305 5.581055 29.478516 Q 5.844727 28.344727 6.591797 26.859375 Q 7.338867 25.374023 7.681641 25.066406 Q 7.787109 24.969727 7.910156 24.969727 Q 8.068359 24.969727 8.178223 25.075195 Q 8.288086 25.180664 8.288086 25.330078 Q 8.288086 25.417969 8.226562 25.523438 Q 7.259766 27.298828 6.846680 28.740234 Q 6.433594 30.181641 6.433594 31.623047 Q 6.433594 33.073242 6.846680 34.514648 Q 7.259766 35.956055 8.226562 37.722656 Q 8.288086 37.828125 8.288086 37.916016 Q 8.288086 38.065430 8.178223 38.175293 Q 8.068359 38.285156 7.910156 38.285156 Q 7.787109 38.285156 7.681641 38.188477 Q 7.356445 37.889648 6.618164 36.439453 Q 5.879883 34.989258 5.598633 33.873047 Q 5.317383 32.756836 5.317383 31.623047 Z " fill="rgb(0, 0, 0)" fill-opacity="1.000000" />
<path d="M 10.801758 114.752930 L 10.801758 116.044922 L 6.046875 116.044922 L 6.046875 125.405273 L 4.754883 125.405273 L 4.754883 114.752930 Z " fill="rgb(0, 0, 0)" fill-opacity="1.000000" />
<path d="M 4.754883 146.405273 L 4.754883 126.014648 L 6.046875 126.014648 L 6.046875 146.405273 Z " fill="rgb(0, 0, 0)" fill-opacity="1.000000" />
<path d="M 4.754883 158.044922 L 4.754883 147.014648 L 6.046875 147.014648 L 6.046875 156.752930 L 10.801758 156.752930 L 10.801758 158.044922 Z " fill="rgb(0, 0, 0)" fill-opacity="1.000000" />
<path d="M 10.801758 198.752930 L 10.801758 200.044922 L 6.046875 200.044922 L 6.046875 209.405273 L 4.754883 209.405273 L 4.754883 198.752930 Z " fill="rgb(0, 0, 0)" fill-opacity="1.000000" />
<path d="M 4.754883 242.044922 L 4.754883 231.014648 L 6.046875 231.014648 L 6.046875 240.752930 L 10.801758 240.752930 L 10.801758 242.044922 Z " fill="rgb(0, 0, 0)" fill-opacity="1.000000" />
<path d="M 10.801758 282.752930 L 10.801758 284.044922 L 6.046875 284.044922 L 6.046875 293.405273 L 4.754883 293.405273 L 4.754883 282.752930 Z " fill="rgb(0, 0, 0)" fill-opacity="1.000000" />
<path d="M 4.754883 326.044922 L 4.754883 315.014648 L 6.046875 315.014648 L 6.046875 324.752930 L 10.801758 324.752930 L 10.801758 326.044922 Z " fill="rgb(0, 0, 0)" fill-opacity="1.000000" />
<path d="M 10.801758 408.752930 L 10.801758 410.044922 L 6.046875 410.044922 L 6.046875 419.405273 L 4.754883 419.405273 L 4.754883 408.752930 Z " fill="rgb(0, 0, 0)" fill-opacity="1.000000" />
<path d="M 4.754883 452.044922 L 4.754883 441.014648 L 6.046875 441.014648 L 6.046875 450.752930 L 10.801758 450.752930 L 10.801758 452.044922 Z " fill="rgb(0, 0, 0)" fill-opacity="1.000000" />
<path d="M 10.801758 492.752930 L 10.801758 494.044922 L 6.046875 494.044922 L 6.046875 503.405273 L 4.754883 503.405273 L 4.754883 492.752930 Z " fill="rgb(0, 0, 0)" fill-opacity="1.000000" />
<path d="M 4.754883 524.405273 L 4.754883 504.014648 L 6.046875 504.014648 L 6.046875 524.405273 Z " fill="rgb(0, 0, 0)" fill-opacity="1.000000" />
<path d="M 4.754883 536.044922 L 4.754883 525.014648 L 6.046875 525.014648 L 6.046875 534.752930 L 10.801758 534.752930 L 10.801758 536.044922 Z " fill="rgb(0, 0, 0)" fill-opacity="1.000000" />
<path d="M 21.801758 536.044922 L 11.000000 536.044922 L 11.000000 534.752930 L 21.801758 534.752930 Z " fill="rgb(0, 0, 0)" fill-opacity="1.000000" />
<path d="M 32.801758 536.044922 L 22.000000 536.044922 L 22.000000 534.752930 L 32.801758 534.752930 Z " fill="rgb(0, 0, 0)" fill-opacity="1.000000" />
<path d="M 43.801758 536.044922 L 33.000000 536.044922 L 33.000000 534.752930 L 43.801758 534.752930 Z " fill="rgb(0, 0, 0)" fill-opacity="1.000000" />
<path d="M 54.801758 536.044922 L 44.000000 536.044922 L 44.000000 534.752930 L 54.801758 534.752930 Z " fill="rgb(0, 0, 0)" fill-opacity="1.000000" />
<path d="M 65.801758 536.044922 L 55.000000 536.044922 L 55.000000 534.752930 L 65.801758 534.752930 Z " fill="rgb(0, 0, 0)" fill-opacity="1.000000" />
<path d="M 76.801758 536.044922 L 66.000000 536.044922 L 66.000000 534.752930 L 76.801758 534.752930 Z " fill="rgb(0, 0, 0)" fill-opacity="1.000000" />
<path d="M 87.801758 536.044922 L 77.000000 536.044922 L 77.000000 534.752930 L 87.801758 534.752930 Z " fill="rgb(0, 0, 0)" fill-opacity="1.000000" />
<path d="M 98.801758 536.044922 L 88.000000 536.044922 L 88.000000 534.752930 L 98.801758 534.752930 Z " fill="rgb(0, 0, 0)" fill-opacity="1.000000" />
<path d="M 109.801758 536.044922 L 99.000000 536.044922 L 99.000000 534.752930 L 109.801758 534.752930 Z " fill="rgb(0, 0, 0)" fill-opacity="1.000000" />
<path d="M 120.801758 536.044922 L 110.000000 536.044922 L 110.000000 534.752930 L 120.801758 534.752930 Z " fill="rgb(0, 0, 0)" fill-opacity="1.000000" />
<path d="M 131.801758 536.044922 L 121.000000 536.044922 L 121.000000 534.752930 L 131.801758 534.752930 Z " fill="rgb(0, 0, 0)" fill-opacity="1.000000" />
<path d="M 142.801758 536.044922 L 132.000000 536.044922 L 132.000000 534.752930 L 142.801758 534.752930 Z " fill="rgb(0, 0, 0)" fill-opacity="1.000000" />
<path d="M 153.801758 536.044922 L 143.000000 536.044922 L 143.000000 534.752930 L 153.801758 534.752930 Z " fill="rgb(0, 0, 0)" fill-opacity="1.000000" />
<path d="M 160.046875 536.044922 L 154.000000 536.044922 L 154.000000 534.752930 L 158.754883 534.752930 L 158.754883 525.014648 L 160.046875 525.014648 Z " fill="rgb(0, 0, 0)" fill-opacity="1.000000" />
<path d="M 35.997070 514.412109 L 35.997070 518.261719 L 37.359375 518.261719 Q 37.631836 518.261719 37.746094 518.362793 Q 37.860352 518.463867 37.860352 518.630859 Q 37.860352 518.789062 37.746094 518.894531 Q 37.631836 519.000000 37.359375 519.000000 L 34.265625 519.000000 Q 34.001953 519.000000 33.887695 518.894531 Q 33.773438 518.789062 33.773438 518.630859 Q 33.773438 518.463867 33.887695 518.362793 Q 34.001953 518.261719 34.265625 518.261719 L 35.258789 518.261719 L 35.258789 509.455078 L 34.265625 509.455078 Q 34.001953 509.455078 33.887695 509.354004 Q 33.773438 509.252930 33.773438 509.085938 Q 33.773438 508.918945 33.887695 508.817871 Q 34.001953 508.716797 34.265625 508.716797 L 38.730469 508.716797 Q 40.110352 508.716797 41.055176 509.591309 Q 42.000000 510.465820 42.000000 511.564453 Q 42.000000 512.355469 41.415527 513.054199 Q 40.831055 513.752930 39.459961 514.218750 Q 40.250977 514.763672 40.813477 515.449219 Q 41.375977 516.134766 42.615234 518.261719 L 43.177734 518.261719 Q 43.441406 518.261719 43.555664 518.362793 Q 43.669922 518.463867 43.669922 518.630859 Q 43.669922 518.789062 43.555664 518.894531 Q 43.441406 519.000000 43.177734 519.000000 L 42.193359 519.000000 Q 40.822266 516.547852 40.070801 515.712891 Q 39.319336 514.877930 38.343750 514.412109 Z M 35.997070 513.673828 L 38.009766 513.673828 Q 38.976562 513.673828 39.763184 513.322266 Q 40.549805 512.970703 40.905762 512.496094 Q 41.261719 512.021484 41.261719 511.529297 Q 41.261719 510.791016 40.519043 510.123047 Q 39.776367 509.455078 38.712891 509.455078 L 35.997070 509.455078 Z " fill="rgb(0, 0, 0)" fill-opacity="1.000000" />
<path d="M 51.523438 519.000000 L 51.523438 517.936523 Q 49.915039 519.290039 48.086914 519.290039 Q 46.759766 519.290039 46.012695 518.617676 Q 45.265625 517.945312 45.265625 516.969727 Q 45.265625 515.897461 46.250000 515.097656 Q 47.234375 514.297852 49.124023 514.297852 Q 49.633789 514.297852 50.231445 514.363770 Q 50.829102 514.429688 51.523438 514.570312 L 51.523438 513.375000 Q 51.523438 512.768555 50.960938 512.320312 Q 50.398438 511.872070 49.273438 511.872070 Q 48.412109 511.872070 46.856445 512.373047 Q 46.575195 512.460938 46.496094 512.460938 Q 46.355469 512.460938 46.254395 512.355469 Q 46.153320 512.250000 46.153320 512.091797 Q 46.153320 511.942383 46.241211 511.854492 Q 46.364258 511.722656 47.234375 511.494141 Q 48.605469 511.125000 49.308594 511.125000 Q 50.706055 511.125000 51.488281 511.814941 Q 52.270508 512.504883 52.270508 513.375000 L 52.270508 518.261719 L 53.254883 518.261719 Q 53.527344 518.261719 53.641602 518.362793 Q 53.755859 518.463867 53.755859 518.630859 Q 53.755859 518.789062 53.641602 518.894531 Q 53.527344 519.000000 53.254883 519.000000 Z M 51.523438 515.326172 Q 51.004883 515.176758 50.424805 515.106445 Q 49.844727 515.036133 49.203125 515.036133 Q 47.594727 515.036133 46.689453 515.730469 Q 46.003906 516.249023 46.003906 516.969727 Q 46.003906 517.637695 46.526855 518.094727 Q 47.049805 518.551758 48.051758 518.551758 Q 49.009766 518.551758 49.831543 518.169434 Q 50.653320 517.787109 51.523438 516.952148 Z " fill="rgb(0, 0, 0)" fill-opacity="1.000000" />
<path d="M 60.765625 507.600586 L 60.765625 509.507812 L 59.675781 509.507812 L 59.675781 507.600586 Z M 60.791992 511.388672 L 60.791992 518.261719 L 63.692383 518.261719 Q 63.964844 518.261719 64.079102 518.362793 Q 64.193359 518.463867 64.193359 518.630859 Q 64.193359 518.789062 64.079102 518.894531 Q 63.964844 519.000000 63.692383 519.000000 L 57.153320 519.000000 Q 56.889648 519.000000 56.775391 518.894531 Q 56.661133 518.789062 56.661133 518.630859 Q 56.661133 518.463867 56.775391 518.362793 Q 56.889648 518.261719 57.153320 518.261719 L 60.053711 518.261719 L 60.053711 512.135742 L 57.900391 512.135742 Q 57.636719 512.135742 57.518066 512.030273 Q 57.399414 511.924805 57.399414 511.766602 Q 57.399414 511.599609 57.513672 511.494141 Q 57.627930 511.388672 57.900391 511.388672 Z " fill="rgb(0, 0, 0)" fill-opacity="1.000000" />
<path d="M 71.774414 507.969727 L 71.774414 518.261719 L 74.674805 518.261719 Q 74.947266 518.261719 75.061523 518.362793 Q 75.175781 518.463867 75.175781 518.630859 Q 75.175781 518.789062 75.061523 518.894531 Q 74.947266 519.000000 74.674805 519.000000 L 68.135742 519.000000 Q 67.872070 519.000000 67.757812 518.894531 Q 67.643555 518.789062 67.643555 518.630859 Q 67.643555 518.463867 67.757812 518.362793 Q 67.872070 518.261719 68.135742 518.261719 L 71.036133 518.261719 L 71.036133 508.716797 L 68.909180 508.716797 Q 68.645508 508.716797 68.526855 508.611328 Q 68.408203 508.505859 68.408203 508.338867 Q 68.408203 508.180664 68.522461 508.075195 Q 68.636719 507.969727 68.909180 507.969727 Z " fill="rgb(0, 0, 0)" fill-opacity="1.000000" />
<path d="M 84.839844 511.872070 Q 84.839844 511.617188 84.945312 511.502930 Q 85.050781 511.388672 85.208984 511.388672 Q 85.375977 511.388672 85.481445 511.502930 Q 85.586914 511.617188 85.586914 511.889648 L 85.586914 513.155273 Q 85.586914 513.418945 85.481445 513.533203 Q 85.375977 513.647461 85.208984 513.647461 Q 85.059570 513.647461 84.958496 513.550781 Q 84.857422 513.454102 84.839844 513.234375 Q 84.787109 512.707031 84.294922 512.364258 Q 83.574219 511.872070 82.387695 511.872070 Q 81.148438 511.872070 80.462891 512.373047 Q 79.944336 512.750977 79.944336 513.216797 Q 79.944336 513.744141 80.559570 514.095703 Q 80.981445 514.341797 82.159180 514.473633 Q 83.697266 514.640625 84.294922 514.851562 Q 85.147461 515.159180 85.564941 515.704102 Q 85.982422 516.249023 85.982422 516.881836 Q 85.982422 517.822266 85.077148 518.556152 Q 84.171875 519.290039 82.422852 519.290039 Q 80.673828 519.290039 79.557617 518.402344 Q 79.557617 518.701172 79.522461 518.789062 Q 79.487305 518.876953 79.395020 518.938477 Q 79.302734 519.000000 79.188477 519.000000 Q 79.030273 519.000000 78.924805 518.885742 Q 78.819336 518.771484 78.819336 518.507812 L 78.819336 516.987305 Q 78.819336 516.723633 78.920410 516.609375 Q 79.021484 516.495117 79.188477 516.495117 Q 79.346680 516.495117 79.456543 516.604980 Q 79.566406 516.714844 79.566406 516.899414 Q 79.566406 517.303711 79.768555 517.576172 Q 80.076172 517.998047 80.748535 518.274902 Q 81.420898 518.551758 82.396484 518.551758 Q 83.837891 518.551758 84.541016 518.015625 Q 85.244141 517.479492 85.244141 516.881836 Q 85.244141 516.196289 84.532227 515.783203 Q 83.811523 515.370117 82.436035 515.229492 Q 81.060547 515.088867 80.462891 514.860352 Q 79.865234 514.631836 79.531250 514.174805 Q 79.197266 513.717773 79.197266 513.190430 Q 79.197266 512.241211 80.128906 511.683105 Q 81.060547 511.125000 82.352539 511.125000 Q 83.881836 511.125000 84.839844 511.872070 Z " fill="rgb(0, 0, 0)" fill-opacity="1.000000" />
<path d="M 106.831055 515.563477 L 101.979492 515.563477 L 100.986328 518.261719 L 102.401367 518.261719 Q 102.665039 518.261719 102.779297 518.362793 Q 102.893555 518.463867 102.893555 518.630859 Q 102.893555 518.789062 102.779297 518.894531 Q 102.665039 519.000000 102.401367 519.000000 L 99.641602 519.000000 Q 99.377930 519.000000 99.263672 518.894531 Q 99.149414 518.789062 99.149414 518.630859 Q 99.149414 518.463867 99.263672 518.362793 Q 99.377930 518.261719 99.641602 518.261719 L 100.212891 518.261719 L 103.473633 509.455078 L 101.293945 509.455078 Q 101.030273 509.455078 100.916016 509.354004 Q 100.801758 509.252930 100.801758 509.085938 Q 100.801758 508.918945 100.916016 508.817871 Q 101.030273 508.716797 101.293945 508.716797 L 105.011719 508.716797 L 108.615234 518.261719 L 109.186523 518.261719 Q 109.450195 518.261719 109.564453 518.362793 Q 109.678711 518.463867 109.678711 518.630859 Q 109.678711 518.789062 109.564453 518.894531 Q 109.450195 519.000000 109.186523 519.000000 L 106.435547 519.000000 Q 106.163086 519.000000 106.048828 518.894531 Q 105.934570 518.789062 105.934570 518.630859 Q 105.934570 518.463867 106.048828 518.362793 Q 106.163086 518.261719 106.435547 518.261719 L 107.841797 518.261719 Z M 106.549805 514.825195 L 104.510742 509.455078 L 104.238281 509.455078 L 102.260742 514.825195 Z " fill="rgb(0, 0, 0)" fill-opacity="1.000000" />
<path d="M 112.619141 511.388672 L 112.619141 512.733398 Q 113.278320 511.933594 114.034180 511.529297 Q 114.790039 511.125000 115.818359 511.125000 Q 116.908203 511.125000 117.831055 511.634766 Q 118.753906 512.144531 119.259277 513.054199 Q 119.764648 513.963867 119.764648 514.965820 Q 119.764648 516.556641 118.626465 517.686035 Q 117.488281 518.815430 115.827148 518.815430 Q 113.849609 518.815430 112.619141 517.207031 L 112.619141 521.654297 L 114.412109 521.654297 Q 114.675781 521.654297 114.790039 521.755371 Q 114.904297 521.856445 114.904297 522.023438 Q 114.904297 522.181641 114.790039 522.287109 Q 114.675781 522.392578 114.412109 522.392578 L 110.887695 522.392578 Q 110.624023 522.392578 110.509766 522.291504 Q 110.395508 522.190430 110.395508 522.023438 Q 110.395508 521.856445 110.509766 521.755371 Q 110.624023 521.654297 110.887695 521.654297 L 111.880859 521.654297 L 111.880859 512.135742 L 110.887695 512.135742 Q 110.624023 512.135742 110.509766 512.030273 Q 110.395508 511.924805 110.395508 511.757812 Q 110.395508 511.599609 110.509766 511.494141 Q 110.624023 511.388672 110.887695 511.388672 Z M 119.017578 514.965820 Q 119.017578 513.691406 118.090332 512.781738 Q 117.163086 511.872070 115.827148 511.872070 Q 114.482422 511.872070 113.550781 512.786133 Q 112.619141 513.700195 112.619141 514.965820 Q 112.619141 516.240234 113.550781 517.154297 Q 114.482422 518.068359 115.827148 518.068359 Q 117.154297 518.068359 118.085938 517.158691 Q 119.017578 516.249023 119.017578 514.965820 Z " fill="rgb(0, 0, 0)" fill-opacity="1.000000" />
<path d="M 123.619141 511.388672 L 123.619141 512.733398 Q 124.278320 511.933594 125.034180 511.529297 Q 125.790039 511.125000 126.818359 511.125000 Q 127.908203 511.125000 128.831055 511.634766 Q 129.753906 512.144531 130.259277 513.054199 Q 130.764648 513.963867 130.764648 514.965820 Q 130.764648 516.556641 129.626465 517.686035 Q 128.488281 518.815430 126.827148 518.815430 Q 124.849609 518.815430 123.619141 517.207031 L 123.619141 521.654297 L 125.412109 521.654297 Q 125.675781 521.654297 125.790039 521.755371 Q 125.904297 521.856445 125.904297 522.023438 Q 125.904297 522.181641 125.790039 522.287109 Q 125.675781 522.392578 125.412109 522.392578 L 121.887695 522.392578 Q 121.624023 522.392578 121.509766 522.291504 Q 121.395508 522.190430 121.395508 522.023438 Q 121.395508 521.856445 121.509766 521.755371 Q 121.624023 521.654297 121.887695 521.654297 L 122.880859 521.654297 L 122.880859 512.135742 L 121.887695 512.135742 Q 121.624023 512.135742 121.509766 512.030273 Q 121.395508 511.924805 121.395508 511.757812 Q 121.395508 511.599609 121.509766 511.494141 Q 121.624023 511.388672 121.887695 511.388672 Z M 130.017578 514.965820 Q 130.017578 513.691406 129.090332 512.781738 Q 128.163086 511.872070 126.827148 511.872070 Q 125.482422 511.872070 124.550781 512.786133 Q 123.619141 513.700195 123.619141 514.965820 Q 123.619141 516.240234 124.550781 517.154297 Q 125.482422 518.068359 126.827148 518.068359 Q 128.154297 518.068359 129.085938 517.158691 Q 130.017578 516.249023 130.017578 514.965820 Z " fill="rgb(0, 0, 0)" fill-opacity="1.000000" />
<path d="M 158.754883 524.405273 L 158.754883 504.014648 L 160.046875 504.014648 L 160.046875 524.405273 Z " fill="rgb(0, 0, 0)" fill-opacity="1.000000" />
<path d="M 21.801758 494.044922 L 11.000000 494.044922 L 11.000000 492.752930 L 21.801758 492.752930 Z " fill="rgb(0, 0, 0)" fill-opacity="1.000000" />
<path d="M 32.661133 487.699219 L 27.396484 498.228516 L 22.131836 487.699219 Z " fill="rgb(0, 0, 0)" fill-opacity="1.000000" />
<path d="M 43.801758 494.044922 L 33.000000 494.044922 L 33.000000 492.752930 L 43.801758 492.752930 Z " fill="rgb(0, 0, 0)" fill-opacity="1.000000" />
<path d="M 54.801758 494.044922 L 44.000000 494.044922 L 44.000000 492.752930 L 54.801758 492.752930 Z " fill="rgb(0, 0, 0)" fill-opacity="1.000000" />
<path d="M 65.801758 494.044922 L 55.000000 494.044922 L 55.000000 492.752930 L 65.801758 492.752930 Z " fill="rgb(0, 0, 0)" fill-opacity="1.000000" />
<path d="M 76.801758 494.044922 L 66.000000 494.044922 L 66.000000 492.752930 L 76.801758 492.752930 Z " fill="rgb(0, 0, 0)" fill-opacity="1.000000" />
<path d="M 87.801758 494.044922 L 77.000000 494.044922 L 77.000000 492.752930 L 87.801758 492.752930 Z " fill="rgb(0, 0, 0)" fill-opacity="1.000000" />
<path d="M 98.801758 494.044922 L 88.000000 494.044922 L 88.000000 492.752930 L 98.801758 492.752930 Z " fill="rgb(0, 0, 0)" fill-opacity="1.000000" />
<path d="M 109.801758 494.044922 L 99.000000 494.044922 L 99.000000 492.752930 L 109.801758 492.752930 Z " fill="rgb(0, 0, 0)" fill-opacity="1.000000" />
<path d="M 120.801758 494.044922 L 110.000000 494.044922 L 110.000000 492.752930 L 120.801758 492.752930 Z " fill="rgb(0, 0, 0)" fill-opacity="1.000000" />
<path d="M 131.801758 494.044922 L 121.000000 494.044922 L 121.000000 492.752930 L 131.801758 492.752930 Z " fill="rgb(0, 0, 0)" fill-opacity="1.000000" />
<path d="M 142.801758 494.044922 L 132.000000 494.044922 L 132.000000 492.752930 L 142.801758 492.752930 Z " fill="rgb(0, 0, 0)" fill-opacity="1.000000" />
<path d="M 153.801758 494.044922 L 143.000000 494.044922 L 143.000000 492.752930 L 153.801758 492.752930 Z " fill="rgb(0, 0, 0)" fill-opacity="1.000000" />
<path d="M 158.754883 494.044922 L 154.000000 494.044922 L 154.000000 492.752930 L 160.046875 492.752930 L 160.046875 503.405273 L 158.754883 503.405273 Z " fill="rgb(0, 0, 0)" fill-opacity="1.000000" />
<path d="M 26.754883 482.405273 L 26.754883 462.014648 L 28.046875 462.014648 L 28.046875 482.405273 Z " fill="rgb(0, 0, 0)" fill-opacity="1.000000" />
<path d="M 136.754883 482.405273 L 136.754883 462.014648 L 138.046875 462.014648 L 138.046875 482.405273 Z " fill="rgb(0, 0, 0)" fill-opacity="1.000000" />
<path d="M 32.801758 452.044922 L 22.000000 452.044922 L 22.000000 450.752930 L 32.801758 450.752930 Z " fill="rgb(0, 0, 0)" fill-opacity="1.000000" />
<path d="M 54.801758 452.044922 L 44.000000 452.044922 L 44.000000 450.752930 L 54.801758 450.752930 Z " fill="rgb(0, 0, 0)" fill-opacity="1.000000" />
<path d="M 76.801758 452.044922 L 66.000000 452.044922 L 66.000000 450.752930 L 76.801758 450.752930 Z " fill="rgb(0, 0, 0)" fill-opacity="1.000000" />
<path d="M 98.801758 452.044922 L 88.000000 452.044922 L 88.000000 450.752930 L 98.801758 450.752930 Z " fill="rgb(0, 0, 0)" fill-opacity="1.000000" />
<path d="M 120.801758 452.044922 L 110.000000 452.044922 L 110.000000 450.752930 L 120.801758 450.752930 Z " fill="rgb(0, 0, 0)" fill-opacity="1.000000" />
<path d="M 132.131836 456.000000 L 137.396484 445.470703 L 142.661133 456.000000 Z " fill="rgb(0, 0, 0)" fill-opacity="1.000000" />
<path d="M 160.046875 452.044922 L 154.000000 452.044922 L 154.000000 450.752930 L 158.754883 450.752930 L 158.754883 441.014648 L 160.046875 441.014648 Z " fill="rgb(0, 0, 0)" fill-opacity="1.000000" />
<path d="M 27.888672 431.915039 L 27.044922 431.915039 L 24.206055 425.455078 L 24.065430 425.455078 L 24.065430 434.261719 L 25.427734 434.261719 Q 25.691406 434.261719 25.805664 434.362793 Q 25.919922 434.463867 25.919922 434.630859 Q 25.919922 434.789062 25.805664 434.894531 Q 25.691406 435.000000 25.427734 435.000000 L 22.703125 435.000000 Q 22.439453 435.000000 22.325195 434.894531 Q 22.210938 434.789062 22.210938 434.630859 Q 22.210938 434.463867 22.325195 434.362793 Q 22.439453 434.261719 22.703125 434.261719 L 23.327148 434.261719 L 23.327148 425.455078 L 22.861328 425.455078 Q 22.597656 425.455078 22.483398 425.354004 Q 22.369141 425.252930 22.369141 425.085938 Q 22.369141 424.918945 22.483398 424.817871 Q 22.597656 424.716797 22.861328 424.716797 L 24.671875 424.716797 L 27.466797 431.080078 L 30.217773 424.716797 L 32.028320 424.716797 Q 32.300781 424.716797 32.415039 424.817871 Q 32.529297 424.918945 32.529297 425.085938 Q 32.529297 425.252930 32.415039 425.354004 Q 32.300781 425.455078 32.028320 425.455078 L 31.571289 425.455078 L 31.571289 434.261719 L 32.186523 434.261719 Q 32.458984 434.261719 32.573242 434.362793 Q 32.687500 434.463867 32.687500 434.630859 Q 32.687500 434.789062 32.573242 434.894531 Q 32.458984 435.000000 32.186523 435.000000 L 29.470703 435.000000 Q 29.207031 435.000000 29.088379 434.894531 Q 28.969727 434.789062 28.969727 434.630859 Q 28.969727 434.463867 29.083984 434.362793 Q 29.198242 434.261719 29.470703 434.261719 L 30.833008 434.261719 L 30.833008 425.455078 L 30.674805 425.455078 Z " fill="rgb(0, 0, 0)" fill-opacity="1.000000" />
<path d="M 38.765625 423.600586 L 38.765625 425.507812 L 37.675781 425.507812 L 37.675781 423.600586 Z M 38.791992 427.388672 L 38.791992 434.261719 L 41.692383 434.261719 Q 41.964844 434.261719 42.079102 434.362793 Q 42.193359 434.463867 42.193359 434.630859 Q 42.193359 434.789062 42.079102 434.894531 Q 41.964844 435.000000 41.692383 435.000000 L 35.153320 435.000000 Q 34.889648 435.000000 34.775391 434.894531 Q 34.661133 434.789062 34.661133 434.630859 Q 34.661133 434.463867 34.775391 434.362793 Q 34.889648 434.261719 35.153320 434.261719 L 38.053711 434.261719 L 38.053711 428.135742 L 35.900391 428.135742 Q 35.636719 428.135742 35.518066 428.030273 Q 35.399414 427.924805 35.399414 427.766602 Q 35.399414 427.599609 35.513672 427.494141 Q 35.627930 427.388672 35.900391 427.388672 Z " fill="rgb(0, 0, 0)" fill-opacity="1.000000" />
<path d="M 53.017578 423.969727 L 53.017578 434.261719 L 54.001953 434.261719 Q 54.274414 434.261719 54.388672 434.362793 Q 54.502930 434.463867 54.502930 434.630859 Q 54.502930 434.789062 54.388672 434.894531 Q 54.274414 435.000000 54.001953 435.000000 L 52.270508 435.000000 L 52.270508 433.532227 Q 50.987305 435.290039 49.009766 435.290039 Q 48.007812 435.290039 47.089355 434.758301 Q 46.170898 434.226562 45.639160 433.242188 Q 45.107422 432.257812 45.107422 431.211914 Q 45.107422 430.157227 45.639160 429.177246 Q 46.170898 428.197266 47.089355 427.661133 Q 48.007812 427.125000 49.018555 427.125000 Q 50.952148 427.125000 52.270508 428.882812 L 52.270508 424.716797 L 51.286133 424.716797 Q 51.013672 424.716797 50.899414 424.611328 Q 50.785156 424.505859 50.785156 424.338867 Q 50.785156 424.180664 50.899414 424.075195 Q 51.013672 423.969727 51.286133 423.969727 Z M 52.270508 431.211914 Q 52.270508 429.805664 51.321289 428.838867 Q 50.372070 427.872070 49.062500 427.872070 Q 47.744141 427.872070 46.794922 428.838867 Q 45.845703 429.805664 45.845703 431.211914 Q 45.845703 432.609375 46.794922 433.580566 Q 47.744141 434.551758 49.062500 434.551758 Q 50.372070 434.551758 51.321289 433.580566 Q 52.270508 432.609375 52.270508 431.211914 Z " fill="rgb(0, 0, 0)" fill-opacity="1.000000" />
<path d="M 64.017578 423.969727 L 64.017578 434.261719 L 65.001953 434.261719 Q 65.274414 434.261719 65.388672 434.362793 Q 65.502930 434.463867 65.502930 434.630859 Q 65.502930 434.789062 65.388672 434.894531 Q 65.274414 435.000000 65.001953 435.000000 L 63.270508 435.000000 L 63.270508 433.532227 Q 61.987305 435.290039 60.009766 435.290039 Q 59.007812 435.290039 58.089355 434.758301 Q 57.170898 434.226562 56.639160 433.242188 Q 56.107422 432.257812 56.107422 431.211914 Q 56.107422 430.157227 56.639160 429.177246 Q 57.170898 428.197266 58.089355 427.661133 Q 59.007812 427.125000 60.018555 427.125000 Q 61.952148 427.125000 63.270508 428.882812 L 63.270508 424.716797 L 62.286133 424.716797 Q 62.013672 424.716797 61.899414 424.611328 Q 61.785156 424.505859 61.785156 424.338867 Q 61.785156 424.180664 61.899414 424.075195 Q 62.013672 423.969727 62.286133 423.969727 Z M 63.270508 431.211914 Q 63.270508 429.805664 62.321289 428.838867 Q 61.372070 427.872070 60.062500 427.872070 Q 58.744141 427.872070 57.794922 428.838867 Q 56.845703 429.805664 56.845703 431.211914 Q 56.845703 432.609375 57.794922 433.580566 Q 58.744141 434.551758 60.062500 434.551758 Q 61.372070 434.551758 62.321289 433.580566 Q 63.270508 432.609375 63.270508 431.211914 Z " fill="rgb(0, 0, 0)" fill-opacity="1.000000" />
<path d="M 71.774414 423.969727 L 71.774414 434.261719 L 74.674805 434.261719 Q 74.947266 434.261719 75.061523 434.362793 Q 75.175781 434.463867 75.175781 434.630859 Q 75.175781 434.789062 75.061523 434.894531 Q 74.947266 435.000000 74.674805 435.000000 L 68.135742 435.000000 Q 67.872070 435.000000 67.757812 434.894531 Q 67.643555 434.789062 67.643555 434.630859 Q 67.643555 434.463867 67.757812 434.362793 Q 67.872070 434.261719 68.135742 434.261719 L 71.036133 434.261719 L 71.036133 424.716797 L 68.909180 424.716797 Q 68.645508 424.716797 68.526855 424.611328 Q 68.408203 424.505859 68.408203 424.338867 Q 68.408203 424.180664 68.522461 424.075195 Q 68.636719 423.969727 68.909180 423.969727 Z " fill="rgb(0, 0, 0)" fill-opacity="1.000000" />
<path d="M 86.395508 431.370117 L 78.872070 431.370117 Q 79.065430 432.802734 80.071777 433.677246 Q 81.078125 434.551758 82.563477 434.551758 Q 83.389648 434.551758 84.294922 434.279297 Q 85.200195 434.006836 85.771484 433.558594 Q 85.938477 433.426758 86.061523 433.426758 Q 86.202148 433.426758 86.307617 433.536621 Q 86.413086 433.646484 86.413086 433.795898 Q 86.413086 433.945312 86.272461 434.085938 Q 85.850586 434.525391 84.773926 434.907715 Q 83.697266 435.290039 82.563477 435.290039 Q 80.665039 435.290039 79.395020 434.046387 Q 78.125000 432.802734 78.125000 431.036133 Q 78.125000 429.427734 79.315918 428.276367 Q 80.506836 427.125000 82.264648 427.125000 Q 84.075195 427.125000 85.244141 428.307129 Q 86.413086 429.489258 86.395508 431.370117 Z M 85.648438 430.623047 Q 85.428711 429.401367 84.492676 428.636719 Q 83.556641 427.872070 82.264648 427.872070 Q 80.972656 427.872070 80.041016 428.627930 Q 79.109375 429.383789 78.880859 430.623047 Z " fill="rgb(0, 0, 0)" fill-opacity="1.000000" />
<path d="M 95.945312 435.000000 L 95.031250 435.008789 L 93.405273 430.262695 L 91.788086 435.008789 L 90.874023 435.000000 L 89.344727 428.135742 L 88.984375 428.135742 Q 88.720703 428.135742 88.606445 428.030273 Q 88.492188 427.924805 88.492188 427.757812 Q 88.492188 427.599609 88.606445 427.494141 Q 88.720703 427.388672 88.984375 427.388672 L 91.014648 427.388672 Q 91.278320 427.388672 91.392578 427.494141 Q 91.506836 427.599609 91.506836 427.766602 Q 91.506836 427.924805 91.392578 428.030273 Q 91.278320 428.135742 91.014648 428.135742 L 90.074219 428.135742 L 91.383789 433.989258 L 92.957031 429.313477 L 93.835938 429.313477 L 95.453125 433.989258 L 96.709961 428.135742 L 95.778320 428.135742 Q 95.514648 428.135742 95.395996 428.030273 Q 95.277344 427.924805 95.277344 427.757812 Q 95.277344 427.599609 95.391602 427.494141 Q 95.505859 427.388672 95.778320 427.388672 L 97.799805 427.388672 Q 98.072266 427.388672 98.186523 427.494141 Q 98.300781 427.599609 98.300781 427.766602 Q 98.300781 427.924805 98.186523 428.030273 Q 98.072266 428.135742 97.799805 428.135742 L 97.448242 428.135742 Z " fill="rgb(0, 0, 0)" fill-opacity="1.000000" />
<path d="M 106.523438 435.000000 L 106.523438 433.936523 Q 104.915039 435.290039 103.086914 435.290039 Q 101.759766 435.290039 101.012695 434.617676 Q 100.265625 433.945312 100.265625 432.969727 Q 100.265625 431.897461 101.250000 431.097656 Q 102.234375 430.297852 104.124023 430.297852 Q 104.633789 430.297852 105.231445 430.363770 Q 105.829102 430.429688 106.523438 430.570312 L 106.523438 429.375000 Q 106.523438 428.768555 105.960938 428.320312 Q 105.398438 427.872070 104.273438 427.872070 Q 103.412109 427.872070 101.856445 428.373047 Q 101.575195 428.460938 101.496094 428.460938 Q 101.355469 428.460938 101.254395 428.355469 Q 101.153320 428.250000 101.153320 428.091797 Q 101.153320 427.942383 101.241211 427.854492 Q 101.364258 427.722656 102.234375 427.494141 Q 103.605469 427.125000 104.308594 427.125000 Q 105.706055 427.125000 106.488281 427.814941 Q 107.270508 428.504883 107.270508 429.375000 L 107.270508 434.261719 L 108.254883 434.261719 Q 108.527344 434.261719 108.641602 434.362793 Q 108.755859 434.463867 108.755859 434.630859 Q 108.755859 434.789062 108.641602 434.894531 Q 108.527344 435.000000 108.254883 435.000000 Z M 106.523438 431.326172 Q 106.004883 431.176758 105.424805 431.106445 Q 104.844727 431.036133 104.203125 431.036133 Q 102.594727 431.036133 101.689453 431.730469 Q 101.003906 432.249023 101.003906 432.969727 Q 101.003906 433.637695 101.526855 434.094727 Q 102.049805 434.551758 103.051758 434.551758 Q 104.009766 434.551758 104.831543 434.169434 Q 105.653320 433.787109 106.523438 432.952148 Z " fill="rgb(0, 0, 0)" fill-opacity="1.000000" />
<path d="M 114.517578 427.388672 L 114.517578 429.251953 Q 115.958984 427.951172 116.675293 427.577637 Q 117.391602 427.204102 117.998047 427.204102 Q 118.657227 427.204102 119.224121 427.647949 Q 119.791016 428.091797 119.791016 428.320312 Q 119.791016 428.487305 119.681152 428.597168 Q 119.571289 428.707031 119.404297 428.707031 Q 119.316406 428.707031 119.254883 428.676270 Q 119.193359 428.645508 119.026367 428.478516 Q 118.718750 428.170898 118.490234 428.056641 Q 118.261719 427.942383 118.041992 427.942383 Q 117.558594 427.942383 116.877441 428.329102 Q 116.196289 428.715820 114.517578 430.218750 L 114.517578 434.261719 L 117.787109 434.261719 Q 118.059570 434.261719 118.173828 434.362793 Q 118.288086 434.463867 118.288086 434.630859 Q 118.288086 434.789062 118.173828 434.894531 Q 118.059570 435.000000 117.787109 435.000000 L 111.995117 435.000000 Q 111.731445 435.000000 111.617188 434.898926 Q 111.502930 434.797852 111.502930 434.639648 Q 111.502930 434.490234 111.612793 434.389160 Q 111.722656 434.288086 111.995117 434.288086 L 113.779297 434.288086 L 113.779297 428.135742 L 112.416992 428.135742 Q 112.153320 428.135742 112.039062 428.030273 Q 111.924805 427.924805 111.924805 427.757812 Q 111.924805 427.599609 112.034668 427.494141 Q 112.144531 427.388672 112.416992 427.388672 Z " fill="rgb(0, 0, 0)" fill-opacity="1.000000" />
<path d="M 130.395508 431.370117 L 122.872070 431.370117 Q 123.065430 432.802734 124.071777 433.677246 Q 125.078125 434.551758 126.563477 434.551758 Q 127.389648 434.551758 128.294922 434.279297 Q 129.200195 434.006836 129.771484 433.558594 Q 129.938477 433.426758 130.061523 433.426758 Q 130.202148 433.426758 130.307617 433.536621 Q 130.413086 433.646484 130.413086 433.795898 Q 130.413086 433.945312 130.272461 434.085938 Q 129.850586 434.525391 128.773926 434.907715 Q 127.697266 435.290039 126.563477 435.290039 Q 124.665039 435.290039 123.395020 434.046387 Q 122.125000 432.802734 122.125000 431.036133 Q 122.125000 429.427734 123.315918 428.276367 Q 124.506836 427.125000 126.264648 427.125000 Q 128.075195 427.125000 129.244141 428.307129 Q 130.413086 429.489258 130.395508 431.370117 Z M 129.648438 430.623047 Q 129.428711 429.401367 128.492676 428.636719 Q 127.556641 427.872070 126.264648 427.872070 Q 124.972656 427.872070 124.041016 428.627930 Q 123.109375 429.383789 122.880859 430.623047 Z " fill="rgb(0, 0, 0)" fill-opacity="1.000000" />
<path d="M 141.017578 435.000000 L 140.068359 435.000000 L 134.627930 425.797852 L 134.627930 434.261719 L 135.990234 434.261719 Q 136.262695 434.261719 136.376953 434.362793 Q 136.491211 434.463867 136.491211 434.630859 Q 136.491211 434.789062 136.376953 434.894531 Q 136.262695 435.000000 135.990234 435.000000 L 133.274414 435.000000 Q 133.001953 435.000000 132.887695 434.894531 Q 132.773438 434.789062 132.773438 434.630859 Q 132.773438 434.463867 132.887695 434.362793 Q 133.001953 434.261719 133.274414 434.261719 L 133.889648 434.261719 L 133.889648 425.455078 L 132.896484 425.455078 Q 132.632812 425.455078 132.518555 425.354004 Q 132.404297 425.252930 132.404297 425.085938 Q 132.404297 424.918945 132.518555 424.817871 Q 132.632812 424.716797 132.896484 424.716797 L 134.830078 424.716797 L 140.279297 433.936523 L 140.279297 425.455078 L 138.916992 425.455078 Q 138.653320 425.455078 138.539062 425.354004 Q 138.424805 425.252930 138.424805 425.085938 Q 138.424805 424.918945 138.534668 424.817871 Q 138.644531 424.716797 138.916992 424.716797 L 141.641602 424.716797 Q 141.905273 424.716797 142.019531 424.817871 Q 142.133789 424.918945 142.133789 425.085938 Q 142.133789 425.252930 142.019531 425.354004 Q 141.905273 425.455078 141.641602 425.455078 L 141.017578 425.455078 Z " fill="rgb(0, 0, 0)" fill-opacity="1.000000" />
<path d="M 32.661133 403.699219 L 27.396484 414.228516 L 22.131836 403.699219 Z " fill="rgb(0, 0, 0)" fill-opacity="1.000000" />
<path d="M 54.801758 410.044922 L 44.000000 410.044922 L 44.000000 408.752930 L 54.801758 408.752930 Z " fill="rgb(0, 0, 0)" fill-opacity="1.000000" />
<path d="M 76.801758 410.044922 L 66.000000 410.044922 L 66.000000 408.752930 L 76.801758 408.752930 Z " fill="rgb(0, 0, 0)" fill-opacity="1.000000" />
<path d="M 98.801758 410.044922 L 88.000000 410.044922 L 88.000000 408.752930 L 98.801758 408.752930 Z " fill="rgb(0, 0, 0)" fill-opacity="1.000000" />
<path d="M 120.801758 410.044922 L 110.000000 410.044922 L 110.000000 408.752930 L 120.801758 408.752930 Z " fill="rgb(0, 0, 0)" fill-opacity="1.000000" />
<path d="M 142.801758 410.044922 L 132.000000 410.044922 L 132.000000 408.752930 L 142.801758 408.752930 Z " fill="rgb(0, 0, 0)" fill-opacity="1.000000" />
<path d="M 158.754883 410.044922 L 154.000000 410.044922 L 154.000000 408.752930 L 160.046875 408.752930 L 160.046875 419.405273 L 158.754883 419.405273 Z " fill="rgb(0, 0, 0)" fill-opacity="1.000000" />
<path d="M 26.754883 356.405273 L 26.754883 336.014648 L 28.046875 336.014648 L 28.046875 356.405273 Z " fill="rgb(0, 0, 0)" fill-opacity="1.000000" />
<path d="M 26.754883 377.405273 L 26.754883 357.014648 L 28.046875 357.014648 L 28.046875 377.405273 Z " fill="rgb(0, 0, 0)" fill-opacity="1.000000" />
<path d="M 26.754883 398.405273 L 26.754883 378.014648 L 28.046875 378.014648 L 28.046875 398.405273 Z " fill="rgb(0, 0, 0)" fill-opacity="1.000000" />
<path d="M 136.754883 398.405273 L 136.754883 378.014648 L 138.046875 378.014648 L 138.046875 398.405273 Z " fill="rgb(0, 0, 0)" fill-opacity="1.000000" />
<path d="M 71.247070 369.881836 L 71.563477 369.881836 Q 72.055664 369.881836 72.407227 370.229004 Q 72.758789 370.576172 72.758789 371.068359 Q 72.758789 371.578125 72.402832 371.920898 Q 72.046875 372.263672 71.563477 372.263672 L 71.247070 372.263672 Q 70.754883 372.263672 70.403320 371.916504 Q 70.051758 371.569336 70.051758 371.077148 Q 70.051758 370.567383 70.407715 370.224609 Q 70.763672 369.881836 71.247070 369.881836 Z " fill="rgb(0, 0, 0)" fill-opacity="1.000000" />
<path d="M 82.247070 369.881836 L 82.563477 369.881836 Q 83.055664 369.881836 83.407227 370.229004 Q 83.758789 370.576172 83.758789 371.068359 Q 83.758789 371.578125 83.402832 371.920898 Q 83.046875 372.263672 82.563477 372.263672 L 82.247070 372.263672 Q 81.754883 372.263672 81.403320 371.916504 Q 81.051758 371.569336 81.051758 371.077148 Q 81.051758 370.567383 81.407715 370.224609 Q 81.763672 369.881836 82.247070 369.881836 Z " fill="rgb(0, 0, 0)" fill-opacity="1.000000" />
<path d="M 93.247070 369.881836 L 93.563477 369.881836 Q 94.055664 369.881836 94.407227 370.229004 Q 94.758789 370.576172 94.758789 371.068359 Q 94.758789 371.578125 94.402832 371.920898 Q 94.046875 372.263672 93.563477 372.263672 L 93.247070 372.263672 Q 92.754883 372.263672 92.403320 371.916504 Q 92.051758 371.569336 92.051758 371.077148 Q 92.051758 370.567383 92.407715 370.224609 Q 92.763672 369.881836 93.247070 369.881836 Z " fill="rgb(0, 0, 0)" fill-opacity="1.000000" />
<path d="M 136.754883 377.405273 L 136.754883 357.014648 L 138.046875 357.014648 L 138.046875 377.405273 Z " fill="rgb(0, 0, 0)" fill-opacity="1.000000" />
<path d="M 136.754883 356.405273 L 136.754883 336.014648 L 138.046875 336.014648 L 138.046875 356.405273 Z " fill="rgb(0, 0, 0)" fill-opacity="1.000000" />
<path d="M 32.801758 326.044922 L 22.000000 326.044922 L 22.000000 324.752930 L 32.801758 324.752930 Z " fill="rgb(0, 0, 0)" fill-opacity="1.000000" />
<path d="M 54.801758 326.044922 L 44.000000 326.044922 L 44.000000 324.752930 L 54.801758 324.752930 Z " fill="rgb(0, 0, 0)" fill-opacity="1.000000" />
<path d="M 76.801758 326.044922 L 66.000000 326.044922 L 66.000000 324.752930 L 76.801758 324.752930 Z " fill="rgb(0, 0, 0)" fill-opacity="1.000000" />
<path d="M 98.801758 326.044922 L 88.000000 326.044922 L 88.000000 324.752930 L 98.801758 324.752930 Z " fill="rgb(0, 0, 0)" fill-opacity="1.000000" />
<path d="M 120.801758 326.044922 L 110.000000 326.044922 L 110.000000 324.752930 L 120.801758 324.752930 Z " fill="rgb(0, 0, 0)" fill-opacity="1.000000" />
<path d="M 132.131836 330.000000 L 137.396484 319.470703 L 142.661133 330.000000 Z " fill="rgb(0, 0, 0)" fill-opacity="1.000000" />
<path d="M 160.046875 326.044922 L 154.000000 326.044922 L 154.000000 324.752930 L 158.754883 324.752930 L 158.754883 315.014648 L 160.046875 315.014648 Z " fill="rgb(0, 0, 0)" fill-opacity="1.000000" />
<path d="M 30.639648 309.000000 L 29.479492 309.000000 L 27.387695 301.696289 L 25.339844 309.000000 L 24.179688 309.000000 L 23.089844 299.455078 L 22.817383 299.455078 Q 22.553711 299.455078 22.439453 299.354004 Q 22.325195 299.252930 22.325195 299.085938 Q 22.325195 298.918945 22.439453 298.817871 Q 22.553711 298.716797 22.817383 298.716797 L 25.559570 298.716797 Q 25.832031 298.716797 25.946289 298.817871 Q 26.060547 298.918945 26.060547 299.085938 Q 26.060547 299.252930 25.946289 299.354004 Q 25.832031 299.455078 25.559570 299.455078 L 23.836914 299.455078 L 24.812500 308.156250 L 26.807617 300.993164 L 27.941406 300.993164 L 29.989258 308.156250 L 30.947266 299.455078 L 29.215820 299.455078 Q 28.952148 299.455078 28.837891 299.354004 Q 28.723633 299.252930 28.723633 299.085938 Q 28.723633 298.918945 28.837891 298.817871 Q 28.952148 298.716797 29.215820 298.716797 L 31.940430 298.716797 Q 32.212891 298.716797 32.327148 298.817871 Q 32.441406 298.918945 32.441406 299.085938 Q 32.441406 299.252930 32.327148 299.354004 Q 32.212891 299.455078 31.940430 299.455078 L 31.667969 299.455078 Z " fill="rgb(0, 0, 0)" fill-opacity="1.000000" />
<path d="M 42.395508 305.370117 L 34.872070 305.370117 Q 35.065430 306.802734 36.071777 307.677246 Q 37.078125 308.551758 38.563477 308.551758 Q 39.389648 308.551758 40.294922 308.279297 Q 41.200195 308.006836 41.771484 307.558594 Q 41.938477 307.426758 42.061523 307.426758 Q 42.202148 307.426758 42.307617 307.536621 Q 42.413086 307.646484 42.413086 307.795898 Q 42.413086 307.945312 42.272461 308.085938 Q 41.850586 308.525391 40.773926 308.907715 Q 39.697266 309.290039 38.563477 309.290039 Q 36.665039 309.290039 35.395020 308.046387 Q 34.125000 306.802734 34.125000 305.036133 Q 34.125000 303.427734 35.315918 302.276367 Q 36.506836 301.125000 38.264648 301.125000 Q 40.075195 301.125000 41.244141 302.307129 Q 42.413086 303.489258 42.395508 305.370117 Z M 41.648438 304.623047 Q 41.428711 303.401367 40.492676 302.636719 Q 39.556641 301.872070 38.264648 301.872070 Q 36.972656 301.872070 36.041016 302.627930 Q 35.109375 303.383789 34.880859 304.623047 Z " fill="rgb(0, 0, 0)" fill-opacity="1.000000" />
<path d="M 46.619141 297.969727 L 46.619141 302.865234 Q 47.955078 301.125000 49.844727 301.125000 Q 51.461914 301.125000 52.613281 302.298340 Q 53.764648 303.471680 53.764648 305.176758 Q 53.764648 306.899414 52.600098 308.094727 Q 51.435547 309.290039 49.844727 309.290039 Q 47.911133 309.290039 46.619141 307.549805 L 46.619141 309.000000 L 44.887695 309.000000 Q 44.624023 309.000000 44.509766 308.894531 Q 44.395508 308.789062 44.395508 308.630859 Q 44.395508 308.463867 44.509766 308.362793 Q 44.624023 308.261719 44.887695 308.261719 L 45.880859 308.261719 L 45.880859 298.716797 L 44.887695 298.716797 Q 44.624023 298.716797 44.509766 298.611328 Q 44.395508 298.505859 44.395508 298.338867 Q 44.395508 298.180664 44.509766 298.075195 Q 44.624023 297.969727 44.887695 297.969727 Z M 53.026367 305.211914 Q 53.026367 303.814453 52.068359 302.843262 Q 51.110352 301.872070 49.827148 301.872070 Q 48.543945 301.872070 47.585938 302.843262 Q 46.627930 303.814453 46.627930 305.211914 Q 46.627930 306.609375 47.585938 307.580566 Q 48.543945 308.551758 49.827148 308.551758 Q 51.110352 308.551758 52.068359 307.580566 Q 53.026367 306.609375 53.026367 305.211914 Z " fill="rgb(0, 0, 0)" fill-opacity="1.000000" />
<path d="M 74.648438 299.727539 L 74.648438 299.208984 Q 74.648438 298.945312 74.749512 298.831055 Q 74.850586 298.716797 75.017578 298.716797 Q 75.184570 298.716797 75.285645 298.831055 Q 75.386719 298.945312 75.386719 299.208984 L 75.386719 301.256836 Q 75.386719 301.529297 75.285645 301.643555 Q 75.184570 301.757812 75.017578 301.757812 Q 74.868164 301.757812 74.767090 301.652344 Q 74.666016 301.546875 74.648438 301.309570 Q 74.604492 300.571289 73.848633 300.000000 Q 72.829102 299.217773 71.528320 299.217773 Q 70.675781 299.217773 69.919922 299.595703 Q 69.357422 299.868164 69.023438 300.263672 Q 68.443359 300.949219 68.100586 301.784180 Q 67.854492 302.399414 67.854492 303.172852 L 67.854492 304.464844 Q 67.854492 306.117188 69.049805 307.334473 Q 70.245117 308.551758 71.827148 308.551758 Q 72.776367 308.551758 73.527832 308.138672 Q 74.279297 307.725586 74.982422 306.890625 Q 75.131836 306.706055 75.316406 306.706055 Q 75.474609 306.706055 75.571289 306.802734 Q 75.667969 306.899414 75.667969 307.048828 Q 75.667969 307.250977 75.290039 307.664062 Q 74.569336 308.472656 73.668457 308.881348 Q 72.767578 309.290039 71.844727 309.290039 Q 71.044922 309.290039 70.218750 308.982422 Q 69.585938 308.745117 69.172852 308.428711 Q 68.759766 308.112305 68.157715 307.360840 Q 67.555664 306.609375 67.335938 305.972168 Q 67.116211 305.334961 67.116211 304.570312 L 67.116211 303.067383 Q 67.116211 301.977539 67.700684 300.839355 Q 68.285156 299.701172 69.300293 299.090332 Q 70.315430 298.479492 71.501953 298.479492 Q 73.330078 298.479492 74.648438 299.727539 Z " fill="rgb(0, 0, 0)" fill-opacity="1.000000" />
<path d="M 86.527344 305.211914 Q 86.527344 306.899414 85.318848 308.094727 Q 84.110352 309.290039 82.405273 309.290039 Q 80.682617 309.290039 79.478516 308.090332 Q 78.274414 306.890625 78.274414 305.211914 Q 78.274414 303.524414 79.478516 302.324707 Q 80.682617 301.125000 82.405273 301.125000 Q 84.110352 301.125000 85.318848 302.320312 Q 86.527344 303.515625 86.527344 305.211914 Z M 85.780273 305.211914 Q 85.780273 303.823242 84.791504 302.847656 Q 83.802734 301.872070 82.396484 301.872070 Q 80.990234 301.872070 80.001465 302.852051 Q 79.012695 303.832031 79.012695 305.211914 Q 79.012695 306.583008 80.001465 307.567383 Q 80.990234 308.551758 82.396484 308.551758 Q 83.802734 308.551758 84.791504 307.571777 Q 85.780273 306.591797 85.780273 305.211914 Z " fill="rgb(0, 0, 0)" fill-opacity="1.000000" />
<path d="M 91.014648 301.388672 L 91.014648 302.504883 Q 91.788086 301.722656 92.412109 301.423828 Q 93.036133 301.125000 93.818359 301.125000 Q 94.662109 301.125000 95.356445 301.485352 Q 95.848633 301.749023 96.248535 302.359863 Q 96.648438 302.970703 96.648438 303.612305 L 96.648438 308.261719 L 97.272461 308.261719 Q 97.536133 308.261719 97.650391 308.362793 Q 97.764648 308.463867 97.764648 308.630859 Q 97.764648 308.789062 97.650391 308.894531 Q 97.536133 309.000000 97.272461 309.000000 L 95.294922 309.000000 Q 95.022461 309.000000 94.908203 308.894531 Q 94.793945 308.789062 94.793945 308.630859 Q 94.793945 308.463867 94.908203 308.362793 Q 95.022461 308.261719 95.294922 308.261719 L 95.910156 308.261719 L 95.910156 303.735352 Q 95.910156 302.953125 95.338867 302.412598 Q 94.767578 301.872070 93.809570 301.872070 Q 93.080078 301.872070 92.543945 302.166504 Q 92.007812 302.460938 91.014648 303.629883 L 91.014648 308.261719 L 91.849609 308.261719 Q 92.113281 308.261719 92.227539 308.362793 Q 92.341797 308.463867 92.341797 308.630859 Q 92.341797 308.789062 92.227539 308.894531 Q 92.113281 309.000000 91.849609 309.000000 L 89.441406 309.000000 Q 89.177734 309.000000 89.063477 308.894531 Q 88.949219 308.789062 88.949219 308.630859 Q 88.949219 308.463867 89.063477 308.362793 Q 89.177734 308.261719 89.441406 308.261719 L 90.276367 308.261719 L 90.276367 302.135742 L 89.652344 302.135742 Q 89.388672 302.135742 89.274414 302.030273 Q 89.160156 301.924805 89.160156 301.757812 Q 89.160156 301.599609 89.274414 301.494141 Q 89.388672 301.388672 89.652344 301.388672 Z " fill="rgb(0, 0, 0)" fill-opacity="1.000000" />
<path d="M 106.839844 301.872070 Q 106.839844 301.617188 106.945312 301.502930 Q 107.050781 301.388672 107.208984 301.388672 Q 107.375977 301.388672 107.481445 301.502930 Q 107.586914 301.617188 107.586914 301.889648 L 107.586914 303.155273 Q 107.586914 303.418945 107.481445 303.533203 Q 107.375977 303.647461 107.208984 303.647461 Q 107.059570 303.647461 106.958496 303.550781 Q 106.857422 303.454102 106.839844 303.234375 Q 106.787109 302.707031 106.294922 302.364258 Q 105.574219 301.872070 104.387695 301.872070 Q 103.148438 301.872070 102.462891 302.373047 Q 101.944336 302.750977 101.944336 303.216797 Q 101.944336 303.744141 102.559570 304.095703 Q 102.981445 304.341797 104.159180 304.473633 Q 105.697266 304.640625 106.294922 304.851562 Q 107.147461 305.159180 107.564941 305.704102 Q 107.982422 306.249023 107.982422 306.881836 Q 107.982422 307.822266 107.077148 308.556152 Q 106.171875 309.290039 104.422852 309.290039 Q 102.673828 309.290039 101.557617 308.402344 Q 101.557617 308.701172 101.522461 308.789062 Q 101.487305 308.876953 101.395020 308.938477 Q 101.302734 309.000000 101.188477 309.000000 Q 101.030273 309.000000 100.924805 308.885742 Q 100.819336 308.771484 100.819336 308.507812 L 100.819336 306.987305 Q 100.819336 306.723633 100.920410 306.609375 Q 101.021484 306.495117 101.188477 306.495117 Q 101.346680 306.495117 101.456543 306.604980 Q 101.566406 306.714844 101.566406 306.899414 Q 101.566406 307.303711 101.768555 307.576172 Q 102.076172 307.998047 102.748535 308.274902 Q 103.420898 308.551758 104.396484 308.551758 Q 105.837891 308.551758 106.541016 308.015625 Q 107.244141 307.479492 107.244141 306.881836 Q 107.244141 306.196289 106.532227 305.783203 Q 105.811523 305.370117 104.436035 305.229492 Q 103.060547 305.088867 102.462891 304.860352 Q 101.865234 304.631836 101.531250 304.174805 Q 101.197266 303.717773 101.197266 303.190430 Q 101.197266 302.241211 102.128906 301.683105 Q 103.060547 301.125000 104.352539 301.125000 Q 105.881836 301.125000 106.839844 301.872070 Z " fill="rgb(0, 0, 0)" fill-opacity="1.000000" />
<path d="M 119.527344 305.211914 Q 119.527344 306.899414 118.318848 308.094727 Q 117.110352 309.290039 115.405273 309.290039 Q 113.682617 309.290039 112.478516 308.090332 Q 111.274414 306.890625 111.274414 305.211914 Q 111.274414 303.524414 112.478516 302.324707 Q 113.682617 301.125000 115.405273 301.125000 Q 117.110352 301.125000 118.318848 302.320312 Q 119.527344 303.515625 119.527344 305.211914 Z M 118.780273 305.211914 Q 118.780273 303.823242 117.791504 302.847656 Q 116.802734 301.872070 115.396484 301.872070 Q 113.990234 301.872070 113.001465 302.852051 Q 112.012695 303.832031 112.012695 305.211914 Q 112.012695 306.583008 113.001465 307.567383 Q 113.990234 308.551758 115.396484 308.551758 Q 116.802734 308.551758 117.791504 307.571777 Q 118.780273 306.591797 118.780273 305.211914 Z " fill="rgb(0, 0, 0)" fill-opacity="1.000000" />
<path d="M 126.774414 297.969727 L 126.774414 308.261719 L 129.674805 308.261719 Q 129.947266 308.261719 130.061523 308.362793 Q 130.175781 308.463867 130.175781 308.630859 Q 130.175781 308.789062 130.061523 308.894531 Q 129.947266 309.000000 129.674805 309.000000 L 123.135742 309.000000 Q 122.872070 309.000000 122.757812 308.894531 Q 122.643555 308.789062 122.643555 308.630859 Q 122.643555 308.463867 122.757812 308.362793 Q 122.872070 308.261719 123.135742 308.261719 L 126.036133 308.261719 L 126.036133 298.716797 L 123.909180 298.716797 Q 123.645508 298.716797 123.526855 298.611328 Q 123.408203 298.505859 123.408203 298.338867 Q 123.408203 298.180664 123.522461 298.075195 Q 123.636719 297.969727 123.909180 297.969727 Z " fill="rgb(0, 0, 0)" fill-opacity="1.000000" />
<path d="M 141.395508 305.370117 L 133.872070 305.370117 Q 134.065430 306.802734 135.071777 307.677246 Q 136.078125 308.551758 137.563477 308.551758 Q 138.389648 308.551758 139.294922 308.279297 Q 140.200195 308.006836 140.771484 307.558594 Q 140.938477 307.426758 141.061523 307.426758 Q 141.202148 307.426758 141.307617 307.536621 Q 141.413086 307.646484 141.413086 307.795898 Q 141.413086 307.945312 141.272461 308.085938 Q 140.850586 308.525391 139.773926 308.907715 Q 138.697266 309.290039 137.563477 309.290039 Q 135.665039 309.290039 134.395020 308.046387 Q 133.125000 306.802734 133.125000 305.036133 Q 133.125000 303.427734 134.315918 302.276367 Q 135.506836 301.125000 137.264648 301.125000 Q 139.075195 301.125000 140.244141 302.307129 Q 141.413086 303.489258 141.395508 305.370117 Z M 140.648438 304.623047 Q 140.428711 303.401367 139.492676 302.636719 Q 138.556641 301.872070 137.264648 301.872070 Q 135.972656 301.872070 135.041016 302.627930 Q 134.109375 303.383789 133.880859 304.623047 Z " fill="rgb(0, 0, 0)" fill-opacity="1.000000" />
<path d="M 32.661133 277.699219 L 27.396484 288.228516 L 22.131836 277.699219 Z " fill="rgb(0, 0, 0)" fill-opacity="1.000000" />
<path d="M 54.801758 284.044922 L 44.000000 284.044922 L 44.000000 282.752930 L 54.801758 282.752930 Z " fill="rgb(0, 0, 0)" fill-opacity="1.000000" />
<path d="M 76.801758 284.044922 L 66.000000 284.044922 L 66.000000 282.752930 L 76.801758 282.752930 Z " fill="rgb(0, 0, 0)" fill-opacity="1.000000" />
<path d="M 98.801758 284.044922 L 88.000000 284.044922 L 88.000000 282.752930 L 98.801758 282.752930 Z " fill="rgb(0, 0, 0)" fill-opacity="1.000000" />
<path d="M 120.801758 284.044922 L 110.000000 284.044922 L 110.000000 282.752930 L 120.801758 282.752930 Z " fill="rgb(0, 0, 0)" fill-opacity="1.000000" />
<path d="M 142.801758 284.044922 L 132.000000 284.044922 L 132.000000 282.752930 L 142.801758 282.752930 Z " fill="rgb(0, 0, 0)" fill-opacity="1.000000" />
<path d="M 158.754883 284.044922 L 154.000000 284.044922 L 154.000000 282.752930 L 160.046875 282.752930 L 160.046875 293.405273 L 158.754883 293.405273 Z " fill="rgb(0, 0, 0)" fill-opacity="1.000000" />
<path d="M 26.754883 272.405273 L 26.754883 252.014648 L 28.046875 252.014648 L 28.046875 272.405273 Z " fill="rgb(0, 0, 0)" fill-opacity="1.000000" />
<path d="M 136.754883 272.405273 L 136.754883 252.014648 L 138.046875 252.014648 L 138.046875 272.405273 Z " fill="rgb(0, 0, 0)" fill-opacity="1.000000" />
<path d="M 32.801758 242.044922 L 22.000000 242.044922 L 22.000000 240.752930 L 32.801758 240.752930 Z " fill="rgb(0, 0, 0)" fill-opacity="1.000000" />
<path d="M 54.801758 242.044922 L 44.000000 242.044922 L 44.000000 240.752930 L 54.801758 240.752930 Z " fill="rgb(0, 0, 0)" fill-opacity="1.000000" />
<path d="M 76.801758 242.044922 L 66.000000 242.044922 L 66.000000 240.752930 L 76.801758 240.752930 Z " fill="rgb(0, 0, 0)" fill-opacity="1.000000" />
<path d="M 98.801758 242.044922 L 88.000000 242.044922 L 88.000000 240.752930 L 98.801758 240.752930 Z " fill="rgb(0, 0, 0)" fill-opacity="1.000000" />
<path d="M 120.801758 242.044922 L 110.000000 242.044922 L 110.000000 240.752930 L 120.801758 240.752930 Z " fill="rgb(0, 0, 0)" fill-opacity="1.000000" />
<path d="M 132.131836 246.000000 L 137.396484 235.470703 L 142.661133 246.000000 Z " fill="rgb(0, 0, 0)" fill-opacity="1.000000" />
<path d="M 160.046875 242.044922 L 154.000000 242.044922 L 154.000000 240.752930 L 158.754883 240.752930 L 158.754883 231.014648 L 160.046875 231.014648 Z " fill="rgb(0, 0, 0)" fill-opacity="1.000000" />
<path d="M 27.888672 221.915039 L 27.044922 221.915039 L 24.206055 215.455078 L 24.065430 215.455078 L 24.065430 224.261719 L 25.427734 224.261719 Q 25.691406 224.261719 25.805664 224.362793 Q 25.919922 224.463867 25.919922 224.630859 Q 25.919922 224.789062 25.805664 224.894531 Q 25.691406 225.000000 25.427734 225.000000 L 22.703125 225.000000 Q 22.439453 225.000000 22.325195 224.894531 Q 22.210938 224.789062 22.210938 224.630859 Q 22.210938 224.463867 22.325195 224.362793 Q 22.439453 224.261719 22.703125 224.261719 L 23.327148 224.261719 L 23.327148 215.455078 L 22.861328 215.455078 Q 22.597656 215.455078 22.483398 215.354004 Q 22.369141 215.252930 22.369141 215.085938 Q 22.369141 214.918945 22.483398 214.817871 Q 22.597656 214.716797 22.861328 214.716797 L 24.671875 214.716797 L 27.466797 221.080078 L 30.217773 214.716797 L 32.028320 214.716797 Q 32.300781 214.716797 32.415039 214.817871 Q 32.529297 214.918945 32.529297 215.085938 Q 32.529297 215.252930 32.415039 215.354004 Q 32.300781 215.455078 32.028320 215.455078 L 31.571289 215.455078 L 31.571289 224.261719 L 32.186523 224.261719 Q 32.458984 224.261719 32.573242 224.362793 Q 32.687500 224.463867 32.687500 224.630859 Q 32.687500 224.789062 32.573242 224.894531 Q 32.458984 225.000000 32.186523 225.000000 L 29.470703 225.000000 Q 29.207031 225.000000 29.088379 224.894531 Q 28.969727 224.789062 28.969727 224.630859 Q 28.969727 224.463867 29.083984 224.362793 Q 29.198242 224.261719 29.470703 224.261719 L 30.833008 224.261719 L 30.833008 215.455078 L 30.674805 215.455078 Z " fill="rgb(0, 0, 0)" fill-opacity="1.000000" />
<path d="M 38.765625 213.600586 L 38.765625 215.507812 L 37.675781 215.507812 L 37.675781 213.600586 Z M 38.791992 217.388672 L 38.791992 224.261719 L 41.692383 224.261719 Q 41.964844 224.261719 42.079102 224.362793 Q 42.193359 224.463867 42.193359 224.630859 Q 42.193359 224.789062 42.079102 224.894531 Q 41.964844 225.000000 41.692383 225.000000 L 35.153320 225.000000 Q 34.889648 225.000000 34.775391 224.894531 Q 34.661133 224.789062 34.661133 224.630859 Q 34.661133 224.463867 34.775391 224.362793 Q 34.889648 224.261719 35.153320 224.261719 L 38.053711 224.261719 L 38.053711 218.135742 L 35.900391 218.135742 Q 35.636719 218.135742 35.518066 218.030273 Q 35.399414 217.924805 35.399414 217.766602 Q 35.399414 217.599609 35.513672 217.494141 Q 35.627930 217.388672 35.900391 217.388672 Z " fill="rgb(0, 0, 0)" fill-opacity="1.000000" />
<path d="M 53.017578 213.969727 L 53.017578 224.261719 L 54.001953 224.261719 Q 54.274414 224.261719 54.388672 224.362793 Q 54.502930 224.463867 54.502930 224.630859 Q 54.502930 224.789062 54.388672 224.894531 Q 54.274414 225.000000 54.001953 225.000000 L 52.270508 225.000000 L 52.270508 223.532227 Q 50.987305 225.290039 49.009766 225.290039 Q 48.007812 225.290039 47.089355 224.758301 Q 46.170898 224.226562 45.639160 223.242188 Q 45.107422 222.257812 45.107422 221.211914 Q 45.107422 220.157227 45.639160 219.177246 Q 46.170898 218.197266 47.089355 217.661133 Q 48.007812 217.125000 49.018555 217.125000 Q 50.952148 217.125000 52.270508 218.882812 L 52.270508 214.716797 L 51.286133 214.716797 Q 51.013672 214.716797 50.899414 214.611328 Q 50.785156 214.505859 50.785156 214.338867 Q 50.785156 214.180664 50.899414 214.075195 Q 51.013672 213.969727 51.286133 213.969727 Z M 52.270508 221.211914 Q 52.270508 219.805664 51.321289 218.838867 Q 50.372070 217.872070 49.062500 217.872070 Q 47.744141 217.872070 46.794922 218.838867 Q 45.845703 219.805664 45.845703 221.211914 Q 45.845703 222.609375 46.794922 223.580566 Q 47.744141 224.551758 49.062500 224.551758 Q 50.372070 224.551758 51.321289 223.580566 Q 52.270508 222.609375 52.270508 221.211914 Z " fill="rgb(0, 0, 0)" fill-opacity="1.000000" />
<path d="M 64.017578 213.969727 L 64.017578 224.261719 L 65.001953 224.261719 Q 65.274414 224.261719 65.388672 224.362793 Q 65.502930 224.463867 65.502930 224.630859 Q 65.502930 224.789062 65.388672 224.894531 Q 65.274414 225.000000 65.001953 225.000000 L 63.270508 225.000000 L 63.270508 223.532227 Q 61.987305 225.290039 60.009766 225.290039 Q 59.007812 225.290039 58.089355 224.758301 Q 57.170898 224.226562 56.639160 223.242188 Q 56.107422 222.257812 56.107422 221.211914 Q 56.107422 220.157227 56.639160 219.177246 Q 57.170898 218.197266 58.089355 217.661133 Q 59.007812 217.125000 60.018555 217.125000 Q 61.952148 217.125000 63.270508 218.882812 L 63.270508 214.716797 L 62.286133 214.716797 Q 62.013672 214.716797 61.899414 214.611328 Q 61.785156 214.505859 61.785156 214.338867 Q 61.785156 214.180664 61.899414 214.075195 Q 62.013672 213.969727 62.286133 213.969727 Z M 63.270508 221.211914 Q 63.270508 219.805664 62.321289 218.838867 Q 61.372070 217.872070 60.062500 217.872070 Q 58.744141 217.872070 57.794922 218.838867 Q 56.845703 219.805664 56.845703 221.211914 Q 56.845703 222.609375 57.794922 223.580566 Q 58.744141 224.551758 60.062500 224.551758 Q 61.372070 224.551758 62.321289 223.580566 Q 63.270508 222.609375 63.270508 221.211914 Z " fill="rgb(0, 0, 0)" fill-opacity="1.000000" />
<path d="M 71.774414 213.969727 L 71.774414 224.261719 L 74.674805 224.261719 Q 74.947266 224.261719 75.061523 224.362793 Q 75.175781 224.463867 75.175781 224.630859 Q 75.175781 224.789062 75.061523 224.894531 Q 74.947266 225.000000 74.674805 225.000000 L 68.135742 225.000000 Q 67.872070 225.000000 67.757812 224.894531 Q 67.643555 224.789062 67.643555 224.630859 Q 67.643555 224.463867 67.757812 224.362793 Q 67.872070 224.261719 68.135742 224.261719 L 71.036133 224.261719 L 71.036133 214.716797 L 68.909180 214.716797 Q 68.645508 214.716797 68.526855 214.611328 Q 68.408203 214.505859 68.408203 214.338867 Q 68.408203 214.180664 68.522461 214.075195 Q 68.636719 213.969727 68.909180 213.969727 Z " fill="rgb(0, 0, 0)" fill-opacity="1.000000" />
<path d="M 86.395508 221.370117 L 78.872070 221.370117 Q 79.065430 222.802734 80.071777 223.677246 Q 81.078125 224.551758 82.563477 224.551758 Q 83.389648 224.551758 84.294922 224.279297 Q 85.200195 224.006836 85.771484 223.558594 Q 85.938477 223.426758 86.061523 223.426758 Q 86.202148 223.426758 86.307617 223.536621 Q 86.413086 223.646484 86.413086 223.795898 Q 86.413086 223.945312 86.272461 224.085938 Q 85.850586 224.525391 84.773926 224.907715 Q 83.697266 225.290039 82.563477 225.290039 Q 80.665039 225.290039 79.395020 224.046387 Q 78.125000 222.802734 78.125000 221.036133 Q 78.125000 219.427734 79.315918 218.276367 Q 80.506836 217.125000 82.264648 217.125000 Q 84.075195 217.125000 85.244141 218.307129 Q 86.413086 219.489258 86.395508 221.370117 Z M 85.648438 220.623047 Q 85.428711 219.401367 84.492676 218.636719 Q 83.556641 217.872070 82.264648 217.872070 Q 80.972656 217.872070 80.041016 218.627930 Q 79.109375 219.383789 78.880859 220.623047 Z " fill="rgb(0, 0, 0)" fill-opacity="1.000000" />
<path d="M 95.945312 225.000000 L 95.031250 225.008789 L 93.405273 220.262695 L 91.788086 225.008789 L 90.874023 225.000000 L 89.344727 218.135742 L 88.984375 218.135742 Q 88.720703 218.135742 88.606445 218.030273 Q 88.492188 217.924805 88.492188 217.757812 Q 88.492188 217.599609 88.606445 217.494141 Q 88.720703 217.388672 88.984375 217.388672 L 91.014648 217.388672 Q 91.278320 217.388672 91.392578 217.494141 Q 91.506836 217.599609 91.506836 217.766602 Q 91.506836 217.924805 91.392578 218.030273 Q 91.278320 218.135742 91.014648 218.135742 L 90.074219 218.135742 L 91.383789 223.989258 L 92.957031 219.313477 L 93.835938 219.313477 L 95.453125 223.989258 L 96.709961 218.135742 L 95.778320 218.135742 Q 95.514648 218.135742 95.395996 218.030273 Q 95.277344 217.924805 95.277344 217.757812 Q 95.277344 217.599609 95.391602 217.494141 Q 95.505859 217.388672 95.778320 217.388672 L 97.799805 217.388672 Q 98.072266 217.388672 98.186523 217.494141 Q 98.300781 217.599609 98.300781 217.766602 Q 98.300781 217.924805 98.186523 218.030273 Q 98.072266 218.135742 97.799805 218.135742 L 97.448242 218.135742 Z " fill="rgb(0, 0, 0)" fill-opacity="1.000000" />
<path d="M 106.523438 225.000000 L 106.523438 223.936523 Q 104.915039 225.290039 103.086914 225.290039 Q 101.759766 225.290039 101.012695 224.617676 Q 100.265625 223.945312 100.265625 222.969727 Q 100.265625 221.897461 101.250000 221.097656 Q 102.234375 220.297852 104.124023 220.297852 Q 104.633789 220.297852 105.231445 220.363770 Q 105.829102 220.429688 106.523438 220.570312 L 106.523438 219.375000 Q 106.523438 218.768555 105.960938 218.320312 Q 105.398438 217.872070 104.273438 217.872070 Q 103.412109 217.872070 101.856445 218.373047 Q 101.575195 218.460938 101.496094 218.460938 Q 101.355469 218.460938 101.254395 218.355469 Q 101.153320 218.250000 101.153320 218.091797 Q 101.153320 217.942383 101.241211 217.854492 Q 101.364258 217.722656 102.234375 217.494141 Q 103.605469 217.125000 104.308594 217.125000 Q 105.706055 217.125000 106.488281 217.814941 Q 107.270508 218.504883 107.270508 219.375000 L 107.270508 224.261719 L 108.254883 224.261719 Q 108.527344 224.261719 108.641602 224.362793 Q 108.755859 224.463867 108.755859 224.630859 Q 108.755859 224.789062 108.641602 224.894531 Q 108.527344 225.000000 108.254883 225.000000 Z M 106.523438 221.326172 Q 106.004883 221.176758 105.424805 221.106445 Q 104.844727 221.036133 104.203125 221.036133 Q 102.594727 221.036133 101.689453 221.730469 Q 101.003906 222.249023 101.003906 222.969727 Q 101.003906 223.637695 101.526855 224.094727 Q 102.049805 224.551758 103.051758 224.551758 Q 104.009766 224.551758 104.831543 224.169434 Q 105.653320 223.787109 106.523438 222.952148 Z " fill="rgb(0, 0, 0)" fill-opacity="1.000000" />
<path d="M 114.517578 217.388672 L 114.517578 219.251953 Q 115.958984 217.951172 116.675293 217.577637 Q 117.391602 217.204102 117.998047 217.204102 Q 118.657227 217.204102 119.224121 217.647949 Q 119.791016 218.091797 119.791016 218.320312 Q 119.791016 218.487305 119.681152 218.597168 Q 119.571289 218.707031 119.404297 218.707031 Q 119.316406 218.707031 119.254883 218.676270 Q 119.193359 218.645508 119.026367 218.478516 Q 118.718750 218.170898 118.490234 218.056641 Q 118.261719 217.942383 118.041992 217.942383 Q 117.558594 217.942383 116.877441 218.329102 Q 116.196289 218.715820 114.517578 220.218750 L 114.517578 224.261719 L 117.787109 224.261719 Q 118.059570 224.261719 118.173828 224.362793 Q 118.288086 224.463867 118.288086 224.630859 Q 118.288086 224.789062 118.173828 224.894531 Q 118.059570 225.000000 117.787109 225.000000 L 111.995117 225.000000 Q 111.731445 225.000000 111.617188 224.898926 Q 111.502930 224.797852 111.502930 224.639648 Q 111.502930 224.490234 111.612793 224.389160 Q 111.722656 224.288086 111.995117 224.288086 L 113.779297 224.288086 L 113.779297 218.135742 L 112.416992 218.135742 Q 112.153320 218.135742 112.039062 218.030273 Q 111.924805 217.924805 111.924805 217.757812 Q 111.924805 217.599609 112.034668 217.494141 Q 112.144531 217.388672 112.416992 217.388672 Z " fill="rgb(0, 0, 0)" fill-opacity="1.000000" />
<path d="M 130.395508 221.370117 L 122.872070 221.370117 Q 123.065430 222.802734 124.071777 223.677246 Q 125.078125 224.551758 126.563477 224.551758 Q 127.389648 224.551758 128.294922 224.279297 Q 129.200195 224.006836 129.771484 223.558594 Q 129.938477 223.426758 130.061523 223.426758 Q 130.202148 223.426758 130.307617 223.536621 Q 130.413086 223.646484 130.413086 223.795898 Q 130.413086 223.945312 130.272461 224.085938 Q 129.850586 224.525391 128.773926 224.907715 Q 127.697266 225.290039 126.563477 225.290039 Q 124.665039 225.290039 123.395020 224.046387 Q 122.125000 222.802734 122.125000 221.036133 Q 122.125000 219.427734 123.315918 218.276367 Q 124.506836 217.125000 126.264648 217.125000 Q 128.075195 217.125000 129.244141 218.307129 Q 130.413086 219.489258 130.395508 221.370117 Z M 129.648438 220.623047 Q 129.428711 219.401367 128.492676 218.636719 Q 127.556641 217.872070 126.264648 217.872070 Q 124.972656 217.872070 124.041016 218.627930 Q 123.109375 219.383789 122.880859 220.623047 Z " fill="rgb(0, 0, 0)" fill-opacity="1.000000" />
<path d="M 137.765625 213.820312 L 137.765625 224.261719 L 140.296875 224.261719 Q 140.560547 224.261719 140.674805 224.362793 Q 140.789062 224.463867 140.789062 224.630859 Q 140.789062 224.789062 140.674805 224.894531 Q 140.560547 225.000000 140.296875 225.000000 L 134.496094 225.000000 Q 134.232422 225.000000 134.118164 224.894531 Q 134.003906 224.789062 134.003906 224.630859 Q 134.003906 224.463867 134.118164 224.362793 Q 134.232422 224.261719 134.496094 224.261719 L 137.027344 224.261719 L 137.027344 214.839844 L 134.619141 215.595703 Q 134.443359 215.648438 134.364258 215.648438 Q 134.232422 215.648438 134.122559 215.538574 Q 134.012695 215.428711 134.012695 215.279297 Q 134.012695 215.147461 134.100586 215.033203 Q 134.170898 214.962891 134.390625 214.883789 Z " fill="rgb(0, 0, 0)" fill-opacity="1.000000" />
<path d="M 32.661133 193.699219 L 27.396484 204.228516 L 22.131836 193.699219 Z " fill="rgb(0, 0, 0)" fill-opacity="1.000000" />
<path d="M 54.801758 200.044922 L 44.000000 200.044922 L 44.000000 198.752930 L 54.801758 198.752930 Z " fill="rgb(0, 0, 0)" fill-opacity="1.000000" />
<path d="M 76.801758 200.044922 L 66.000000 200.044922 L 66.000000 198.752930 L 76.801758 198.752930 Z " fill="rgb(0, 0, 0)" fill-opacity="1.000000" />
<path d="M 98.801758 200.044922 L 88.000000 200.044922 L 88.000000 198.752930 L 98.801758 198.752930 Z " fill="rgb(0, 0, 0)" fill-opacity="1.000000" />
<path d="M 120.801758 200.044922 L 110.000000 200.044922 L 110.000000 198.752930 L 120.801758 198.752930 Z " fill="rgb(0, 0, 0)" fill-opacity="1.000000" />
<path d="M 142.801758 200.044922 L 132.000000 200.044922 L 132.000000 198.752930 L 142.801758 198.752930 Z " fill="rgb(0, 0, 0)" fill-opacity="1.000000" />
<path d="M 158.754883 200.044922 L 154.000000 200.044922 L 154.000000 198.752930 L 160.046875 198.752930 L 160.046875 209.405273 L 158.754883 209.405273 Z " fill="rgb(0, 0, 0)" fill-opacity="1.000000" />
<path d="M 26.754883 188.405273 L 26.754883 168.014648 L 28.046875 168.014648 L 28.046875 188.405273 Z " fill="rgb(0, 0, 0)" fill-opacity="1.000000" />
<path d="M 136.754883 188.405273 L 136.754883 168.014648 L 138.046875 168.014648 L 138.046875 188.405273 Z " fill="rgb(0, 0, 0)" fill-opacity="1.000000" />
<path d="M 21.801758 158.044922 L 11.000000 158.044922 L 11.000000 156.752930 L 21.801758 156.752930 Z " fill="rgb(0, 0, 0)" fill-opacity="1.000000" />
<path d="M 32.801758 158.044922 L 22.000000 158.044922 L 22.000000 156.752930 L 32.801758 156.752930 Z " fill="rgb(0, 0, 0)" fill-opacity="1.000000" />
<path d="M 43.801758 158.044922 L 33.000000 158.044922 L 33.000000 156.752930 L 43.801758 156.752930 Z " fill="rgb(0, 0, 0)" fill-opacity="1.000000" />
<path d="M 54.801758 158.044922 L 44.000000 158.044922 L 44.000000 156.752930 L 54.801758 156.752930 Z " fill="rgb(0, 0, 0)" fill-opacity="1.000000" />
<path d="M 65.801758 158.044922 L 55.000000 158.044922 L 55.000000 156.752930 L 65.801758 156.752930 Z " fill="rgb(0, 0, 0)" fill-opacity="1.000000" />
<path d="M 76.801758 158.044922 L 66.000000 158.044922 L 66.000000 156.752930 L 76.801758 156.752930 Z " fill="rgb(0, 0, 0)" fill-opacity="1.000000" />
<path d="M 87.801758 158.044922 L 77.000000 158.044922 L 77.000000 156.752930 L 87.801758 156.752930 Z " fill="rgb(0, 0, 0)" fill-opacity="1.000000" />
<path d="M 98.801758 158.044922 L 88.000000 158.044922 L 88.000000 156.752930 L 98.801758 156.752930 Z " fill="rgb(0, 0, 0)" fill-opacity="1.000000" />
<path d="M 109.801758 158.044922 L 99.000000 158.044922 L 99.000000 156.752930 L 109.801758 156.752930 Z " fill="rgb(0, 0, 0)" fill-opacity="1.000000" />
<path d="M 120.801758 158.044922 L 110.000000 158.044922 L 110.000000 156.752930 L 120.801758 156.752930 Z " fill="rgb(0, 0, 0)" fill-opacity="1.000000" />
<path d="M 131.801758 158.044922 L 121.000000 158.044922 L 121.000000 156.752930 L 131.801758 156.752930 Z " fill="rgb(0, 0, 0)" fill-opacity="1.000000" />
<path d="M 132.131836 162.000000 L 137.396484 151.470703 L 142.661133 162.000000 Z " fill="rgb(0, 0, 0)" fill-opacity="1.000000" />
<path d="M 153.801758 158.044922 L 143.000000 158.044922 L 143.000000 156.752930 L 153.801758 156.752930 Z " fill="rgb(0, 0, 0)" fill-opacity="1.000000" />
<path d="M 160.046875 158.044922 L 154.000000 158.044922 L 154.000000 156.752930 L 158.754883 156.752930 L 158.754883 147.014648 L 160.046875 147.014648 Z " fill="rgb(0, 0, 0)" fill-opacity="1.000000" />
<path d="M 58.796875 136.781250 L 58.796875 140.261719 L 61.328125 140.261719 Q 61.591797 140.261719 61.706055 140.362793 Q 61.820312 140.463867 61.820312 140.630859 Q 61.820312 140.789062 61.706055 140.894531 Q 61.591797 141.000000 61.328125 141.000000 L 57.065430 141.000000 Q 56.801758 141.000000 56.687500 140.894531 Q 56.573242 140.789062 56.573242 140.630859 Q 56.573242 140.463867 56.687500 140.362793 Q 56.801758 140.261719 57.065430 140.261719 L 58.058594 140.261719 L 58.058594 131.455078 L 57.065430 131.455078 Q 56.801758 131.455078 56.687500 131.354004 Q 56.573242 131.252930 56.573242 131.085938 Q 56.573242 130.918945 56.687500 130.817871 Q 56.801758 130.716797 57.065430 130.716797 L 61.354492 130.716797 Q 62.875000 130.716797 63.837402 131.613281 Q 64.799805 132.509766 64.799805 133.713867 Q 64.799805 134.425781 64.487793 134.997070 Q 64.175781 135.568359 63.736328 135.893555 Q 63.077148 136.385742 62.374023 136.614258 Q 61.864258 136.781250 61.108398 136.781250 Z M 58.796875 136.042969 L 61.152344 136.042969 Q 61.969727 136.042969 62.686035 135.678223 Q 63.402344 135.313477 63.731934 134.786133 Q 64.061523 134.258789 64.061523 133.713867 Q 64.061523 132.843750 63.314453 132.149414 Q 62.567383 131.455078 61.424805 131.455078 L 58.796875 131.455078 Z " fill="rgb(0, 0, 0)" fill-opacity="1.000000" />
<path d="M 73.927734 141.000000 L 73.927734 139.918945 Q 72.416016 141.290039 70.658203 141.290039 Q 69.577148 141.290039 69.014648 140.701172 Q 68.285156 139.927734 68.285156 138.899414 L 68.285156 134.135742 L 67.291992 134.135742 Q 67.028320 134.135742 66.914062 134.030273 Q 66.799805 133.924805 66.799805 133.757812 Q 66.799805 133.599609 66.914062 133.494141 Q 67.028320 133.388672 67.291992 133.388672 L 69.023438 133.388672 L 69.023438 138.899414 Q 69.023438 139.620117 69.480469 140.085938 Q 69.937500 140.551758 70.623047 140.551758 Q 72.424805 140.551758 73.927734 138.899414 L 73.927734 134.135742 L 72.565430 134.135742 Q 72.301758 134.135742 72.187500 134.030273 Q 72.073242 133.924805 72.073242 133.757812 Q 72.073242 133.599609 72.187500 133.494141 Q 72.301758 133.388672 72.565430 133.388672 L 74.666016 133.388672 L 74.666016 140.261719 L 75.290039 140.261719 Q 75.553711 140.261719 75.667969 140.362793 Q 75.782227 140.463867 75.782227 140.630859 Q 75.782227 140.789062 75.667969 140.894531 Q 75.553711 141.000000 75.290039 141.000000 Z " fill="rgb(0, 0, 0)" fill-opacity="1.000000" />
<path d="M 79.039062 133.388672 L 79.039062 134.135742 Q 79.979492 133.125000 80.928711 133.125000 Q 81.500000 133.125000 81.930664 133.428223 Q 82.361328 133.731445 82.651367 134.346680 Q 83.143555 133.731445 83.648926 133.428223 Q 84.154297 133.125000 84.664062 133.125000 Q 85.463867 133.125000 85.938477 133.643555 Q 86.562500 134.311523 86.562500 135.102539 L 86.562500 140.261719 L 87.186523 140.261719 Q 87.450195 140.261719 87.564453 140.362793 Q 87.678711 140.463867 87.678711 140.630859 Q 87.678711 140.789062 87.564453 140.894531 Q 87.450195 141.000000 87.186523 141.000000 L 85.824219 141.000000 L 85.824219 135.172852 Q 85.824219 134.610352 85.481445 134.241211 Q 85.138672 133.872070 84.690430 133.872070 Q 84.286133 133.872070 83.837891 134.175293 Q 83.389648 134.478516 82.818359 135.366211 L 82.818359 140.261719 L 83.433594 140.261719 Q 83.697266 140.261719 83.811523 140.362793 Q 83.925781 140.463867 83.925781 140.630859 Q 83.925781 140.789062 83.811523 140.894531 Q 83.697266 141.000000 83.433594 141.000000 L 82.071289 141.000000 L 82.071289 135.225586 Q 82.071289 134.636719 81.724121 134.254395 Q 81.376953 133.872070 80.946289 133.872070 Q 80.550781 133.872070 80.164062 134.126953 Q 79.627930 134.487305 79.039062 135.366211 L 79.039062 140.261719 L 79.663086 140.261719 Q 79.926758 140.261719 80.041016 140.362793 Q 80.155273 140.463867 80.155273 140.630859 Q 80.155273 140.789062 80.041016 140.894531 Q 79.926758 141.000000 79.663086 141.000000 L 77.676758 141.000000 Q 77.413086 141.000000 77.298828 140.894531 Q 77.184570 140.789062 77.184570 140.630859 Q 77.184570 140.463867 77.298828 140.362793 Q 77.413086 140.261719 77.676758 140.261719 L 78.300781 140.261719 L 78.300781 134.135742 L 77.676758 134.135742 Q 77.413086 134.135742 77.298828 134.030273 Q 77.184570 133.924805 77.184570 133.757812 Q 77.184570 133.599609 77.298828 133.494141 Q 77.413086 133.388672 77.676758 133.388672 Z " fill="rgb(0, 0, 0)" fill-opacity="1.000000" />
<path d="M 95.523438 141.000000 L 95.523438 139.936523 Q 93.915039 141.290039 92.086914 141.290039 Q 90.759766 141.290039 90.012695 140.617676 Q 89.265625 139.945312 89.265625 138.969727 Q 89.265625 137.897461 90.250000 137.097656 Q 91.234375 136.297852 93.124023 136.297852 Q 93.633789 136.297852 94.231445 136.363770 Q 94.829102 136.429688 95.523438 136.570312 L 95.523438 135.375000 Q 95.523438 134.768555 94.960938 134.320312 Q 94.398438 133.872070 93.273438 133.872070 Q 92.412109 133.872070 90.856445 134.373047 Q 90.575195 134.460938 90.496094 134.460938 Q 90.355469 134.460938 90.254395 134.355469 Q 90.153320 134.250000 90.153320 134.091797 Q 90.153320 133.942383 90.241211 133.854492 Q 90.364258 133.722656 91.234375 133.494141 Q 92.605469 133.125000 93.308594 133.125000 Q 94.706055 133.125000 95.488281 133.814941 Q 96.270508 134.504883 96.270508 135.375000 L 96.270508 140.261719 L 97.254883 140.261719 Q 97.527344 140.261719 97.641602 140.362793 Q 97.755859 140.463867 97.755859 140.630859 Q 97.755859 140.789062 97.641602 140.894531 Q 97.527344 141.000000 97.254883 141.000000 Z M 95.523438 137.326172 Q 95.004883 137.176758 94.424805 137.106445 Q 93.844727 137.036133 93.203125 137.036133 Q 91.594727 137.036133 90.689453 137.730469 Q 90.003906 138.249023 90.003906 138.969727 Q 90.003906 139.637695 90.526855 140.094727 Q 91.049805 140.551758 92.051758 140.551758 Q 93.009766 140.551758 93.831543 140.169434 Q 94.653320 139.787109 95.523438 138.952148 Z " fill="rgb(0, 0, 0)" fill-opacity="1.000000" />
<path d="M 158.754883 146.405273 L 158.754883 126.014648 L 160.046875 126.014648 L 160.046875 146.405273 Z " fill="rgb(0, 0, 0)" fill-opacity="1.000000" />
<path d="M 21.801758 116.044922 L 11.000000 116.044922 L 11.000000 114.752930 L 21.801758 114.752930 Z " fill="rgb(0, 0, 0)" fill-opacity="1.000000" />
<path d="M 32.661133 109.699219 L 27.396484 120.228516 L 22.131836 109.699219 Z " fill="rgb(0, 0, 0)" fill-opacity="1.000000" />
<path d="M 43.801758 116.044922 L 33.000000 116.044922 L 33.000000 114.752930 L 43.801758 114.752930 Z " fill="rgb(0, 0, 0)" fill-opacity="1.000000" />
<path d="M 54.801758 116.044922 L 44.000000 116.044922 L 44.000000 114.752930 L 54.801758 114.752930 Z " fill="rgb(0, 0, 0)" fill-opacity="1.000000" />
<path d="M 65.801758 116.044922 L 55.000000 116.044922 L 55.000000 114.752930 L 65.801758 114.752930 Z " fill="rgb(0, 0, 0)" fill-opacity="1.000000" />
<path d="M 76.801758 116.044922 L 66.000000 116.044922 L 66.000000 114.752930 L 76.801758 114.752930 Z " fill="rgb(0, 0, 0)" fill-opacity="1.000000" />
<path d="M 87.801758 116.044922 L 77.000000 116.044922 L 77.000000 114.752930 L 87.801758 114.752930 Z " fill="rgb(0, 0, 0)" fill-opacity="1.000000" />
<path d="M 98.801758 116.044922 L 88.000000 116.044922 L 88.000000 114.752930 L 98.801758 114.752930 Z " fill="rgb(0, 0, 0)" fill-opacity="1.000000" />
<path d="M 109.801758 116.044922 L 99.000000 116.044922 L 99.000000 114.752930 L 109.801758 114.752930 Z " fill="rgb(0, 0, 0)" fill-opacity="1.000000" />
<path d="M 120.801758 116.044922 L 110.000000 116.044922 L 110.000000 114.752930 L 120.801758 114.752930 Z " fill="rgb(0, 0, 0)" fill-opacity="1.000000" />
<path d="M 131.801758 116.044922 L 121.000000 116.044922 L 121.000000 114.752930 L 131.801758 114.752930 Z " fill="rgb(0, 0, 0)" fill-opacity="1.000000" />
<path d="M 142.801758 116.044922 L 132.000000 116.044922 L 132.000000 114.752930 L 142.801758 114.752930 Z " fill="rgb(0, 0, 0)" fill-opacity="1.000000" />
<path d="M 153.801758 116.044922 L 143.000000 116.044922 L 143.000000 114.752930 L 153.801758 114.752930 Z " fill="rgb(0, 0, 0)" fill-opacity="1.000000" />
<path d="M 158.754883 116.044922 L 154.000000 116.044922 L 154.000000 114.752930 L 160.046875 114.752930 L 160.046875 125.405273 L 158.754883 125.405273 Z " fill="rgb(0, 0, 0)" fill-opacity="1.000000" />
<path d="M 15.614258 45.495117 L 17.688477 47.288086 L 17.881836 47.507812 Q 17.908203 47.551758 17.908203 47.648438 Q 17.908203 47.806641 17.798340 47.916504 Q 17.688477 48.026367 17.530273 48.026367 Q 17.398438 48.026367 17.196289 47.850586 L 15.122070 46.057617 Q 14.902344 45.864258 14.902344 45.697266 Q 14.902344 45.539062 15.012207 45.429199 Q 15.122070 45.319336 15.280273 45.319336 Q 15.412109 45.319336 15.614258 45.495117 Z " fill="rgb(0, 0, 0)" fill-opacity="1.000000" />
<path d="M 26.754883 83.405273 L 26.754883 63.014648 L 28.046875 63.014648 L 28.046875 83.405273 Z " fill="rgb(0, 0, 0)" fill-opacity="1.000000" />
<path d="M 26.754883 104.405273 L 26.754883 84.014648 L 28.046875 84.014648 L 28.046875 104.405273 Z " fill="rgb(0, 0, 0)" fill-opacity="1.000000" />
<path d="M 136.754883 83.405273 L 136.754883 63.014648 L 138.046875 63.014648 L 138.046875 83.405273 Z " fill="rgb(0, 0, 0)" fill-opacity="1.000000" />
<path d="M 136.754883 104.405273 L 136.754883 84.014648 L 138.046875 84.014648 L 138.046875 104.405273 Z " fill="rgb(0, 0, 0)" fill-opacity="1.000000" />
<path d="M 32.801758 53.044922 L 22.000000 53.044922 L 22.000000 51.752930 L 32.801758 51.752930 Z " fill="rgb(0, 0, 0)" fill-opacity="1.000000" />
<path d="M 43.801758 53.044922 L 33.000000 53.044922 L 33.000000 51.752930 L 43.801758 51.752930 Z " fill="rgb(0, 0, 0)" fill-opacity="1.000000" />
<path d="M 54.801758 53.044922 L 44.000000 53.044922 L 44.000000 51.752930 L 54.801758 51.752930 Z " fill="rgb(0, 0, 0)" fill-opacity="1.000000" />
<path d="M 65.801758 53.044922 L 55.000000 53.044922 L 55.000000 51.752930 L 65.801758 51.752930 Z " fill="rgb(0, 0, 0)" fill-opacity="1.000000" />
<path d="M 76.801758 53.044922 L 66.000000 53.044922 L 66.000000 51.752930 L 76.801758 51.752930 Z " fill="rgb(0, 0, 0)" fill-opacity="1.000000" />
<path d="M 87.801758 53.044922 L 77.000000 53.044922 L 77.000000 51.752930 L 87.801758 51.752930 Z " fill="rgb(0, 0, 0)" fill-opacity="1.000000" />
<path d="M 98.801758 53.044922 L 88.000000 53.044922 L 88.000000 51.752930 L 98.801758 51.752930 Z " fill="rgb(0, 0, 0)" fill-opacity="1.000000" />
<path d="M 109.801758 53.044922 L 99.000000 53.044922 L 99.000000 51.752930 L 109.801758 51.752930 Z " fill="rgb(0, 0, 0)" fill-opacity="1.000000" />
<path d="M 120.801758 53.044922 L 110.000000 53.044922 L 110.000000 51.752930 L 120.801758 51.752930 Z " fill="rgb(0, 0, 0)" fill-opacity="1.000000" />
<path d="M 131.801758 53.044922 L 121.000000 53.044922 L 121.000000 51.752930 L 131.801758 51.752930 Z " fill="rgb(0, 0, 0)" fill-opacity="1.000000" />
<path d="M 132.131836 57.000000 L 137.396484 46.470703 L 142.661133 57.000000 Z " fill="rgb(0, 0, 0)" fill-opacity="1.000000" />
<path d="M 147.227539 45.969727 L 149.565430 45.969727 L 148.950195 50.583984 Q 148.897461 50.953125 148.752441 51.098145 Q 148.607422 51.243164 148.396484 51.243164 Q 148.176758 51.243164 148.036133 51.098145 Q 147.895508 50.953125 147.842773 50.583984 Z " fill="rgb(0, 0, 0)" fill-opacity="1.000000" />
<path d="M 46.250000 35.261719 L 46.250000 26.455078 L 45.256836 26.455078 Q 44.993164 26.455078 44.878906 26.354004 Q 44.764648 26.252930 44.764648 26.085938 Q 44.764648 25.918945 44.878906 25.817871 Q 44.993164 25.716797 45.256836 25.716797 L 49.897461 25.716797 Q 51.277344 25.716797 52.143066 26.512207 Q 53.008789 27.307617 53.008789 28.379883 Q 53.008789 29.733398 51.558594 30.568359 Q 52.709961 30.981445 53.246094 31.666992 Q 53.782227 32.352539 53.782227 33.178711 Q 53.782227 33.916992 53.430664 34.527832 Q 53.079102 35.138672 52.354004 35.569336 Q 51.628906 36.000000 50.776367 36.000000 L 45.256836 36.000000 Q 44.993164 36.000000 44.878906 35.894531 Q 44.764648 35.789062 44.764648 35.630859 Q 44.764648 35.463867 44.878906 35.362793 Q 44.993164 35.261719 45.256836 35.261719 Z M 46.988281 30.287109 L 49.598633 30.287109 Q 50.433594 30.287109 51.127930 29.979492 Q 51.664062 29.733398 51.962891 29.267578 Q 52.261719 28.801758 52.261719 28.318359 Q 52.261719 27.624023 51.611328 27.039551 Q 50.960938 26.455078 49.915039 26.455078 L 46.988281 26.455078 Z M 46.988281 35.261719 L 50.723633 35.261719 Q 51.435547 35.261719 51.962891 34.945312 Q 52.490234 34.628906 52.762695 34.163086 Q 53.035156 33.697266 53.035156 33.196289 Q 53.035156 32.633789 52.644043 32.106445 Q 52.252930 31.579102 51.558594 31.306641 Q 50.864258 31.034180 49.642578 31.034180 L 46.988281 31.034180 Z " fill="rgb(0, 0, 0)" fill-opacity="1.000000" />
<path d="M 59.517578 28.388672 L 59.517578 30.251953 Q 60.958984 28.951172 61.675293 28.577637 Q 62.391602 28.204102 62.998047 28.204102 Q 63.657227 28.204102 64.224121 28.647949 Q 64.791016 29.091797 64.791016 29.320312 Q 64.791016 29.487305 64.681152 29.597168 Q 64.571289 29.707031 64.404297 29.707031 Q 64.316406 29.707031 64.254883 29.676270 Q 64.193359 29.645508 64.026367 29.478516 Q 63.718750 29.170898 63.490234 29.056641 Q 63.261719 28.942383 63.041992 28.942383 Q 62.558594 28.942383 61.877441 29.329102 Q 61.196289 29.715820 59.517578 31.218750 L 59.517578 35.261719 L 62.787109 35.261719 Q 63.059570 35.261719 63.173828 35.362793 Q 63.288086 35.463867 63.288086 35.630859 Q 63.288086 35.789062 63.173828 35.894531 Q 63.059570 36.000000 62.787109 36.000000 L 56.995117 36.000000 Q 56.731445 36.000000 56.617188 35.898926 Q 56.502930 35.797852 56.502930 35.639648 Q 56.502930 35.490234 56.612793 35.389160 Q 56.722656 35.288086 56.995117 35.288086 L 58.779297 35.288086 L 58.779297 29.135742 L 57.416992 29.135742 Q 57.153320 29.135742 57.039062 29.030273 Q 56.924805 28.924805 56.924805 28.757812 Q 56.924805 28.599609 57.034668 28.494141 Q 57.144531 28.388672 57.416992 28.388672 Z " fill="rgb(0, 0, 0)" fill-opacity="1.000000" />
<path d="M 75.527344 32.211914 Q 75.527344 33.899414 74.318848 35.094727 Q 73.110352 36.290039 71.405273 36.290039 Q 69.682617 36.290039 68.478516 35.090332 Q 67.274414 33.890625 67.274414 32.211914 Q 67.274414 30.524414 68.478516 29.324707 Q 69.682617 28.125000 71.405273 28.125000 Q 73.110352 28.125000 74.318848 29.320312 Q 75.527344 30.515625 75.527344 32.211914 Z M 74.780273 32.211914 Q 74.780273 30.823242 73.791504 29.847656 Q 72.802734 28.872070 71.396484 28.872070 Q 69.990234 28.872070 69.001465 29.852051 Q 68.012695 30.832031 68.012695 32.211914 Q 68.012695 33.583008 69.001465 34.567383 Q 69.990234 35.551758 71.396484 35.551758 Q 72.802734 35.551758 73.791504 34.571777 Q 74.780273 33.591797 74.780273 32.211914 Z " fill="rgb(0, 0, 0)" fill-opacity="1.000000" />
<path d="M 84.945312 36.000000 L 84.031250 36.008789 L 82.405273 31.262695 L 80.788086 36.008789 L 79.874023 36.000000 L 78.344727 29.135742 L 77.984375 29.135742 Q 77.720703 29.135742 77.606445 29.030273 Q 77.492188 28.924805 77.492188 28.757812 Q 77.492188 28.599609 77.606445 28.494141 Q 77.720703 28.388672 77.984375 28.388672 L 80.014648 28.388672 Q 80.278320 28.388672 80.392578 28.494141 Q 80.506836 28.599609 80.506836 28.766602 Q 80.506836 28.924805 80.392578 29.030273 Q 80.278320 29.135742 80.014648 29.135742 L 79.074219 29.135742 L 80.383789 34.989258 L 81.957031 30.313477 L 82.835938 30.313477 L 84.453125 34.989258 L 85.709961 29.135742 L 84.778320 29.135742 Q 84.514648 29.135742 84.395996 29.030273 Q 84.277344 28.924805 84.277344 28.757812 Q 84.277344 28.599609 84.391602 28.494141 Q 84.505859 28.388672 84.778320 28.388672 L 86.799805 28.388672 Q 87.072266 28.388672 87.186523 28.494141 Q 87.300781 28.599609 87.300781 28.766602 Q 87.300781 28.924805 87.186523 29.030273 Q 87.072266 29.135742 86.799805 29.135742 L 86.448242 29.135742 Z " fill="rgb(0, 0, 0)" fill-opacity="1.000000" />
<path d="M 95.839844 28.872070 Q 95.839844 28.617188 95.945312 28.502930 Q 96.050781 28.388672 96.208984 28.388672 Q 96.375977 28.388672 96.481445 28.502930 Q 96.586914 28.617188 96.586914 28.889648 L 96.586914 30.155273 Q 96.586914 30.418945 96.481445 30.533203 Q 96.375977 30.647461 96.208984 30.647461 Q 96.059570 30.647461 95.958496 30.550781 Q 95.857422 30.454102 95.839844 30.234375 Q 95.787109 29.707031 95.294922 29.364258 Q 94.574219 28.872070 93.387695 28.872070 Q 92.148438 28.872070 91.462891 29.373047 Q 90.944336 29.750977 90.944336 30.216797 Q 90.944336 30.744141 91.559570 31.095703 Q 91.981445 31.341797 93.159180 31.473633 Q 94.697266 31.640625 95.294922 31.851562 Q 96.147461 32.159180 96.564941 32.704102 Q 96.982422 33.249023 96.982422 33.881836 Q 96.982422 34.822266 96.077148 35.556152 Q 95.171875 36.290039 93.422852 36.290039 Q 91.673828 36.290039 90.557617 35.402344 Q 90.557617 35.701172 90.522461 35.789062 Q 90.487305 35.876953 90.395020 35.938477 Q 90.302734 36.000000 90.188477 36.000000 Q 90.030273 36.000000 89.924805 35.885742 Q 89.819336 35.771484 89.819336 35.507812 L 89.819336 33.987305 Q 89.819336 33.723633 89.920410 33.609375 Q 90.021484 33.495117 90.188477 33.495117 Q 90.346680 33.495117 90.456543 33.604980 Q 90.566406 33.714844 90.566406 33.899414 Q 90.566406 34.303711 90.768555 34.576172 Q 91.076172 34.998047 91.748535 35.274902 Q 92.420898 35.551758 93.396484 35.551758 Q 94.837891 35.551758 95.541016 35.015625 Q 96.244141 34.479492 96.244141 33.881836 Q 96.244141 33.196289 95.532227 32.783203 Q 94.811523 32.370117 93.436035 32.229492 Q 92.060547 32.088867 91.462891 31.860352 Q 90.865234 31.631836 90.531250 31.174805 Q 90.197266 30.717773 90.197266 30.190430 Q 90.197266 29.241211 91.128906 28.683105 Q 92.060547 28.125000 93.352539 28.125000 Q 94.881836 28.125000 95.839844 28.872070 Z " fill="rgb(0, 0, 0)" fill-opacity="1.000000" />
<path d="M 108.395508 32.370117 L 100.872070 32.370117 Q 101.065430 33.802734 102.071777 34.677246 Q 103.078125 35.551758 104.563477 35.551758 Q 105.389648 35.551758 106.294922 35.279297 Q 107.200195 35.006836 107.771484 34.558594 Q 107.938477 34.426758 108.061523 34.426758 Q 108.202148 34.426758 108.307617 34.536621 Q 108.413086 34.646484 108.413086 34.795898 Q 108.413086 34.945312 108.272461 35.085938 Q 107.850586 35.525391 106.773926 35.907715 Q 105.697266 36.290039 104.563477 36.290039 Q 102.665039 36.290039 101.395020 35.046387 Q 100.125000 33.802734 100.125000 32.036133 Q 100.125000 30.427734 101.315918 29.276367 Q 102.506836 28.125000 104.264648 28.125000 Q 106.075195 28.125000 107.244141 29.307129 Q 108.413086 30.489258 108.395508 32.370117 Z M 107.648438 31.623047 Q 107.428711 30.401367 106.492676 29.636719 Q 105.556641 28.872070 104.264648 28.872070 Q 102.972656 28.872070 102.041016 29.627930 Q 101.109375 30.383789 100.880859 31.623047 Z " fill="rgb(0, 0, 0)" fill-opacity="1.000000" />
<path d="M 114.517578 28.388672 L 114.517578 30.251953 Q 115.958984 28.951172 116.675293 28.577637 Q 117.391602 28.204102 117.998047 28.204102 Q 118.657227 28.204102 119.224121 28.647949 Q 119.791016 29.091797 119.791016 29.320312 Q 119.791016 29.487305 119.681152 29.597168 Q 119.571289 29.707031 119.404297 29.707031 Q 119.316406 29.707031 119.254883 29.676270 Q 119.193359 29.645508 119.026367 29.478516 Q 118.718750 29.170898 118.490234 29.056641 Q 118.261719 28.942383 118.041992 28.942383 Q 117.558594 28.942383 116.877441 29.329102 Q 116.196289 29.715820 114.517578 31.218750 L 114.517578 35.261719 L 117.787109 35.261719 Q 118.059570 35.261719 118.173828 35.362793 Q 118.288086 35.463867 118.288086 35.630859 Q 118.288086 35.789062 118.173828 35.894531 Q 118.059570 36.000000 117.787109 36.000000 L 111.995117 36.000000 Q 111.731445 36.000000 111.617188 35.898926 Q 111.502930 35.797852 111.502930 35.639648 Q 111.502930 35.490234 111.612793 35.389160 Q 111.722656 35.288086 111.995117 35.288086 L 113.779297 35.288086 L 113.779297 29.135742 L 112.416992 29.135742 Q 112.153320 29.135742 112.039062 29.030273 Q 111.924805 28.924805 111.924805 28.757812 Q 111.924805 28.599609 112.034668 28.494141 Q 112.144531 28.388672 112.416992 28.388672 Z " fill="rgb(0, 0, 0)" fill-opacity="1.000000" />
<path d="M 159.616211 31.631836 Q 159.616211 32.642578 159.352539 33.771973 Q 159.088867 34.901367 158.341797 36.391113 Q 157.594727 37.880859 157.251953 38.179688 Q 157.146484 38.285156 157.023438 38.285156 Q 156.865234 38.285156 156.755371 38.175293 Q 156.645508 38.065430 156.645508 37.916016 Q 156.645508 37.828125 156.707031 37.722656 Q 157.673828 35.956055 158.086914 34.514648 Q 158.500000 33.073242 158.500000 31.631836 Q 158.500000 30.181641 158.086914 28.740234 Q 157.673828 27.298828 156.707031 25.523438 Q 156.645508 25.417969 156.645508 25.330078 Q 156.645508 25.180664 156.755371 25.075195 Q 156.865234 24.969727 157.023438 24.969727 Q 157.146484 24.969727 157.251953 25.066406 Q 157.577148 25.365234 158.315430 26.815430 Q 159.053711 28.265625 159.334961 29.381836 Q 159.616211 30.498047 159.616211 31.631836 Z " fill="rgb(0, 0, 0)" fill-opacity="1.000000" />
<path d="M 16.247070 12.881836 L 16.563477 12.881836 Q 17.055664 12.881836 17.407227 13.229004 Q 17.758789 13.576172 17.758789 14.068359 Q 17.758789 14.578125 17.402832 14.920898 Q 17.046875 15.263672 16.563477 15.263672 L 16.247070 15.263672 Q 15.754883 15.263672 15.403320 14.916504 Q 15.051758 14.569336 15.051758 14.077148 Q 15.051758 13.567383 15.407715 13.224609 Q 15.763672 12.881836 16.247070 12.881836 Z " fill="rgb(0, 0, 0)" fill-opacity="1.000000" />
<path d="M 32.801758 11.044922 L 22.000000 11.044922 L 22.000000 9.752930 L 32.801758 9.752930 Z " fill="rgb(0, 0, 0)" fill-opacity="1.000000" />
<path d="M 43.801758 11.044922 L 33.000000 11.044922 L 33.000000 9.752930 L 43.801758 9.752930 Z " fill="rgb(0, 0, 0)" fill-opacity="1.000000" />
<path d="M 54.801758 11.044922 L 44.000000 11.044922 L 44.000000 9.752930 L 54.801758 9.752930 Z " fill="rgb(0, 0, 0)" fill-opacity="1.000000" />
<path d="M 65.801758 11.044922 L 55.000000 11.044922 L 55.000000 9.752930 L 65.801758 9.752930 Z " fill="rgb(0, 0, 0)" fill-opacity="1.000000" />
<path d="M 76.801758 11.044922 L 66.000000 11.044922 L 66.000000 9.752930 L 76.801758 9.752930 Z " fill="rgb(0, 0, 0)" fill-opacity="1.000000" />
<path d="M 87.801758 11.044922 L 77.000000 11.044922 L 77.000000 9.752930 L 87.801758 9.752930 Z " fill="rgb(0, 0, 0)" fill-opacity="1.000000" />
<path d="M 98.801758 11.044922 L 88.000000 11.044922 L 88.000000 9.752930 L 98.801758 9.752930 Z " fill="rgb(0, 0, 0)" fill-opacity="1.000000" />
<path d="M 109.801758 11.044922 L 99.000000 11.044922 L 99.000000 9.752930 L 109.801758 9.752930 Z " fill="rgb(0, 0, 0)" fill-opacity="1.000000" />
<path d="M 120.801758 11.044922 L 110.000000 11.044922 L 110.000000 9.752930 L 120.801758 9.752930 Z " fill="rgb(0, 0, 0)" fill-opacity="1.000000" />
<path d="M 131.801758 11.044922 L 121.000000 11.044922 L 121.000000 9.752930 L 131.801758 9.752930 Z " fill="rgb(0, 0, 0)" fill-opacity="1.000000" />
<path d="M 142.801758 11.044922 L 132.000000 11.044922 L 132.000000 9.752930 L 142.801758 9.752930 Z " fill="rgb(0, 0, 0)" fill-opacity="1.000000" />
<path d="M 148.247070 12.881836 L 148.563477 12.881836 Q 149.055664 12.881836 149.407227 13.229004 Q 149.758789 13.576172 149.758789 14.068359 Q 149.758789 14.578125 149.402832 14.920898 Q 149.046875 15.263672 148.563477 15.263672 L 148.247070 15.263672 Q 147.754883 15.263672 147.403320 14.916504 Q 147.051758 14.569336 147.051758 14.077148 Q 147.051758 13.567383 147.407715 13.224609 Q 147.763672 12.881836 148.247070 12.881836 Z " fill="rgb(0, 0, 0)" fill-opacity="1.000000" />
</svg>