<?xml version="1.0" encoding="UTF-8"?>
<svg width="600px" height="150px" viewBox="0 0 600 150" version="1.1" xmlns="http://www.w3.org/2000/svg" xmlns:xlink="http://www.w3.org/1999/xlink">
    <!-- Generator: Sketch 47.1 (45422) - http://www.bohemiancoding.com/sketch -->
    <title>Logo</title>
    <desc>Created with Sketch.</desc>
    <defs></defs>
    <g id="Page-1" stroke="none" stroke-width="1" fill="none" fill-rule="evenodd">
        <g id="logo" transform="translate(-75.000000, -90.000000)">
            <g id="Logo" transform="translate(75.000000, 90.000000)">
                <g id="Icon" transform="translate(25.000000, 12.000000)">
                    <rect id="Rectangle-2" x="0" y="0" width="120" height="120"></rect>
                    <path d="M43.6850459,95.7972603 C33.9088991,95.7972603 24.1327523,95.979726 14.3566055,95.7364384 C6.5866055,95.5438356 3.47045872,90.8909589 5.74137615,80.8147945 C6.75972477,77.1147945 9.09174312,68.0421918 9.81477064,65.0720548 C11.790367,57.2868493 13.3891743,49.1975342 21.3424771,44.8994521 C23.7337048,43.5955111 26.3674026,42.7917617 29.0819266,42.5375342 C33.9394495,42.1624658 38.8478899,42.4767123 43.7359633,42.3753425 C45.7726606,42.3753425 46.4753211,43.2167123 46.0272477,45.0413699 C45.0088991,49.0961644 43.9905505,53.090137 42.8805505,57.0739726 C41.403945,62.2641096 43.8988991,67.5454795 51.3124771,67.7178082 C60.5285321,67.9408219 69.7547706,67.7786301 78.9810092,67.7887671 C82.4841284,67.7887671 85.9872477,67.7887671 89.490367,67.7887671 C91.3743119,67.7887671 92.3315596,68.4578082 91.8020183,70.4345205 C90.7836697,74.2663014 87.3823853,87.5660274 82.8507339,91.3369863 C79.6225688,94.0232877 76.1805505,95.8580822 71.8627523,95.8378082 C62.453211,95.8378082 53.0436697,95.8378082 43.6443119,95.8378082 L43.6850459,95.7972603 Z" id="Shape" fill="#635D8A" fill-rule="nonzero"></path>
                    <path d="M106.904128,22.8008219 C94.1815596,22.712968 81.4555963,22.712968 68.7262385,22.8008219 C64.9277982,22.8008219 61.7912844,24.6660274 59.1537615,27.3016438 C55.793211,30.6468493 55.5386239,35.289589 54.1842202,39.4660274 C53.0844037,42.8213699 52.503945,46.3490411 51.332844,49.6841096 C49.8256881,53.9821918 51.6077982,59.2128767 56.4245872,60.1353425 L99.1952294,60.1353425 C104.745229,59.8616438 108.584404,54.9654795 109.877706,50.1808219 C109.877706,50.1808219 114.154771,34.7320548 114.175138,34.6509589 C116.028532,26.8961644 112.902202,22.8413699 106.904128,22.8008219 Z" id="Shape" fill="#635D8A" fill-rule="nonzero"></path>
                </g>
                <g id="Group" transform="translate(159.000000, 10.000000)" fill-rule="nonzero" fill="#635D8A">
                    <path d="M0.730640394,27.144127 L24.1314286,27.144127 L24.1314286,36.1447619 C28.9922167,30.3847619 38.2672906,25.3765079 47.0857143,25.3765079 L47.0857143,47.36 C45.2080888,46.8299628 43.2619535,46.5834375 41.3116256,46.6285714 C35.2229557,46.6285714 27.1757635,49.1377778 24.1415764,53.272381 L24.1415764,98.4177778 L0.730640394,98.4177778 L0.730640394,27.144127 Z" id="Shape"></path>
                    <path d="M102.249064,56.9396825 C102.249064,48.2336508 97.5404926,45.44 90.0717241,45.44 C84.5544774,45.4857061 79.3556221,48.0337636 75.9358621,52.368254 L75.9358621,98.3974603 L52.5452217,98.3974603 L52.5452217,0 L75.9460099,0 L75.9460099,35.8501587 C80.3501478,30.831746 89.0163547,25.3765079 101.315468,25.3765079 C118.028867,25.3765079 125.670148,34.5193651 125.670148,47.6546032 L125.670148,98.448254 L102.249064,98.448254 L102.249064,56.9396825 Z" id="Shape"></path>
                    <path d="M144.940788,107.255873 C150.258227,107.255873 153.606995,106.24 154.824729,103.273651 L156.499113,99.4336508 L127.314089,27.144127 L151.932611,27.144127 L168.503941,72.2996825 L185.21734,27.1542857 L209.988079,27.1542857 L176.855567,108.586667 C170.929261,123.631746 159.837734,127.034921 145.854089,127.329524 C142.480516,127.282638 139.120756,126.887747 135.828079,126.151111 L139.1667,105.945397 C140.967353,106.814532 142.941769,107.262642 144.940788,107.255873 L144.940788,107.255873 Z" id="Shape"></path>
                    <path d="M304.220394,55.0298413 C304.220394,49.5644444 301.480493,45.44 294.48867,45.44 C288.105714,45.44 283.54936,49.4222222 281.296552,52.368254 L281.296552,98.3974603 L257.895764,98.3974603 L257.895764,55.0298413 C257.895764,49.5644444 255.308079,45.44 248.164039,45.44 C241.9333,45.44 237.529163,49.4222222 235.093695,52.368254 L235.093695,98.3974603 L211.682759,98.3974603 L211.682759,27.144127 L235.02266,27.144127 L235.02266,35.8501587 C238.219212,31.7155556 247.636355,25.3765079 259.184532,25.3765079 C269.667192,25.3765079 276.963448,29.6533333 280.007783,38.0647619 C284.259704,31.8679365 293.839212,25.3765079 305.377241,25.3765079 C318.904236,25.3765079 327.418227,32.1625397 327.418227,46.7707937 L327.418227,98.407619 L304.159507,98.407619 L304.220394,55.0298413 Z" id="Shape"></path>
                    <path d="M373.509458,25.3765079 C395.24601,25.3765079 411.056256,40.8685714 411.056256,65.0666667 L411.056256,69.9326984 L358.774877,69.9326984 C360.144828,76.5765079 366.527783,82.6209524 377.467094,82.6209524 C384.002266,82.6209524 391.298522,80.111746 395.398227,76.5257143 L405.282167,90.6869841 C397.985911,97.0361905 385.828867,100.124444 374.585123,100.124444 C351.935271,100.124444 334.460788,85.8107937 334.460788,62.6590476 C334.470936,42.0469841 350.555172,25.3765079 373.509458,25.3765079 Z M358.460296,55.1720635 L388.70069,55.1720635 C388.091823,50.1638095 384.296552,42.9307937 373.479015,42.9307937 C363.321084,42.9307937 359.373596,50.0114286 358.460296,55.1720635 Z" id="Shape"></path>
                </g>
            </g>
        </g>
    </g>
</svg>