<?xml version="1.0" encoding="UTF-8"?>
<svg width="695px" height="85px" viewBox="0 0 695 85" version="1.1" xmlns="http://www.w3.org/2000/svg" xmlns:xlink="http://www.w3.org/1999/xlink">
    <!-- Generator: Sketch 42 (36781) - http://www.bohemiancoding.com/sketch -->
    <title>logo_monochrome</title>
    <desc>Created with Sketch.</desc>
    <defs></defs>
    <g id="Page-1" stroke="none" stroke-width="1" fill="none" fill-rule="evenodd">
        <g id="description_invert" transform="translate(-160.000000, -180.000000)">
            <g id="logo_invert_blue" transform="translate(159.000000, 165.000000)">
                <path d="M8.84503834,51.5 C8.84503834,50.9465644 8.82968252,50.2240343 8.79897043,49.3323881 C8.76825833,48.4407418 8.72219089,47.518363 8.6607667,46.5652239 C8.59934252,45.6120848 8.52256344,44.674333 8.43042716,43.7519403 C8.33829089,42.8295476 8.23080018,42.0301526 8.10795181,41.3537313 L1.93485214,41.3537313 L1.93485214,35.358209 L14.1889157,35.358209 L15.1102738,41.8149254 L15.5709529,41.8149254 C17.2294059,39.6626758 19.3331526,37.8640371 21.8822563,36.4189552 C24.43136,34.9738734 27.5485906,34.2513433 31.2340416,34.2513433 C37.8064294,34.2513433 42.751002,36.065355 46.067908,39.6934328 C49.384814,43.3215107 51.0432421,49.2554812 51.0432421,57.4955224 C51.0432421,61.3695716 50.4750769,64.8592382 49.3387295,67.9646269 C48.2023821,71.0700155 46.5900214,73.6987952 44.5015991,75.8510448 C42.4131769,78.0032943 39.8948231,79.6635762 36.9464622,80.8319403 C33.9981014,82.0003043 30.7426684,82.5844776 27.1800657,82.5844776 C25.8901578,82.5844776 24.7384717,82.5383587 23.7249726,82.4461194 C22.7114736,82.3538801 21.7901246,82.2308963 20.9608981,82.0771642 C20.1316716,81.9234321 19.3178134,81.7235833 18.519299,81.4776119 C17.7207846,81.2316406 16.8608589,80.9241809 15.9394962,80.5552239 L15.9394962,99.9253731 L8.84503834,99.9253731 L8.84503834,51.5 Z M30.036276,40.9847761 C28.1935505,40.9847761 26.4583433,41.3229817 24.8306024,41.999403 C23.2028615,42.6758243 21.7594148,43.5674572 20.5002191,44.6743284 C19.2410233,45.7811996 18.2121836,47.011038 17.4136692,48.3638806 C16.6151548,49.7167232 16.1237687,51.0695455 15.9394962,52.4223881 L15.9394962,73.4528358 C17.2908282,74.3752285 18.811054,75.0977586 20.5002191,75.6204478 C22.1893841,76.1431369 24.4159774,76.4044776 27.1800657,76.4044776 C32.0940005,76.4044776 36.0250893,74.7903146 38.9734502,71.5619403 C41.921811,68.3335659 43.3959693,63.6140609 43.3959693,57.4032836 C43.3959693,52.1763918 42.3671297,48.1332979 40.3094195,45.2738806 C38.2517093,42.4144633 34.8273624,40.9847761 30.036276,40.9847761 Z M65.2321577,38.9555224 C67.8733977,37.4182013 70.8524259,36.3113467 74.1693319,35.6349254 C77.4862378,34.9585041 80.7416708,34.6202985 83.9357284,34.6202985 C87.0683618,34.6202985 89.632783,35.1122339 91.629069,36.0961194 C93.625355,37.0800049 95.1916482,38.3559623 96.3279956,39.9240299 C97.464343,41.4920974 98.2321338,43.2753631 98.631391,45.2738806 C99.0306482,47.2723981 99.2302738,49.2862585 99.2302738,51.3155224 C99.2302738,53.6522505 99.1688506,56.1426733 99.0460022,58.7868657 C98.9231538,61.431058 98.8310189,64.0752107 98.7695947,66.719403 C98.7695947,69.7940452 98.9538645,72.7149115 99.3224096,75.4820896 L105.495509,75.4820896 L105.495509,81.4776119 L93.2414458,81.4776119 L92.4122234,74.5597015 L91.9515444,74.5597015 C91.5829993,75.1131371 91.0301899,75.8202942 90.2930997,76.681194 C89.5560095,77.5420939 88.5885931,78.3876078 87.3908215,79.2177612 C86.1930499,80.0479146 84.7342474,80.7704447 83.0143702,81.3853731 C81.294493,82.0003016 79.2675254,82.3077612 76.9334064,82.3077612 C72.3880167,82.3077612 68.7947558,81.1394147 66.1535159,78.8026866 C63.512276,76.4659585 62.1916758,73.2683785 62.1916758,69.2098507 C62.1916758,66.0737157 62.8826875,63.460309 64.2647317,61.3695522 C65.6467758,59.2787955 67.627676,57.6800055 70.2074918,56.5731343 C72.7873075,55.4662631 75.9045381,54.8205979 79.5592771,54.6361194 C83.2140161,54.4516409 87.3140189,54.6976086 91.8594085,55.3740299 C92.1665295,52.545359 92.2125969,50.193293 91.9976123,48.3177612 C91.7826276,46.4422294 91.2912415,44.9510503 90.5234392,43.8441791 C89.7556369,42.7373079 88.6807298,41.9532859 87.2986857,41.4920896 C85.9166415,41.0308932 84.212146,40.8002985 82.1851479,40.8002985 C79.4210596,40.8002985 76.7798593,41.184623 74.2614677,41.9532836 C71.7430761,42.7219441 69.501127,43.5059662 67.5355531,44.3053731 L65.2321577,38.9555224 Z M78.7761227,76.1277612 C80.4959998,76.1277612 82.0930047,75.8510475 83.5671851,75.2976119 C85.0413655,74.7441763 86.3312541,74.0370192 87.4368894,73.1761194 C88.5425247,72.3152196 89.4638736,71.3774678 90.2009639,70.3628358 C90.9380541,69.3482039 91.4908634,68.3797061 91.8594085,67.4573134 L91.8594085,61.000597 C88.665351,60.4471614 85.7170343,60.1704478 83.0143702,60.1704478 C80.3117061,60.1704478 77.9776221,60.4625344 76.0120482,61.0467164 C74.0464743,61.6308984 72.5108927,62.5379043 71.4052574,63.7677612 C70.2996221,64.9976181 69.7468127,66.5964081 69.7468127,68.5641791 C69.7468127,70.593443 70.4378244,72.3613358 71.8198686,73.8679104 C73.2019127,75.3744851 75.5206409,76.1277612 78.7761227,76.1277612 Z M116.643943,81.4776119 L116.643943,75.2976119 L129.082278,75.2976119 L129.082278,41.538209 L116.643943,41.538209 L116.643943,35.358209 L133.873341,35.358209 L135.347514,41.3537313 L135.808193,41.3537313 C137.896615,39.4474532 140.230699,37.8179172 142.810515,36.4650746 C145.390331,35.112232 148.461494,34.4358209 152.024096,34.4358209 C154.112519,34.4358209 155.786303,34.8355184 157.045498,35.6349254 C158.304694,36.4343324 159.287466,37.6026789 159.993844,39.14 C160.700223,40.6773211 161.176253,42.5374518 161.42195,44.7204478 C161.667646,46.9034438 161.790493,49.3784936 161.790493,52.1456716 L155.340986,52.2379104 C155.340986,48.3023684 154.95709,45.412248 154.189288,43.5674627 C153.421486,41.7226773 152.024107,40.8002985 149.997108,40.8002985 C148.092959,40.8002985 146.373107,41.0770122 144.837503,41.6304478 C143.301898,42.1838834 141.965942,42.8602945 140.829595,43.6597015 C139.693247,44.4591085 138.725831,45.2585035 137.927317,46.0579104 C137.128802,46.8573174 136.545281,47.5337286 136.176736,48.0871642 L136.176736,75.2976119 L153.866813,75.2976119 L153.866813,81.4776119 L116.643943,81.4776119 Z M168.700679,35.358209 L179.664841,35.358209 L179.664841,26.2265672 L186.851435,24.1973134 L186.851435,35.358209 L211.451698,35.358209 L211.451698,41.538209 L186.851435,41.538209 L186.851435,63.3065672 C186.851435,67.7955448 187.941698,71.1161086 190.122256,73.2683582 C192.302815,75.4206078 195.420045,76.4967164 199.474042,76.4967164 C202.23813,76.4967164 204.648993,75.9740351 206.706703,74.9286567 C208.764413,73.8832784 210.622467,72.7456778 212.28092,71.5158209 L214.676451,76.9579104 C212.526605,78.6797101 209.962184,80.0632784 206.983111,81.1086567 C204.004038,82.1540351 200.94823,82.6767164 197.815597,82.6767164 C195.35863,82.6767164 193.039901,82.3231379 190.859343,81.6159701 C188.678784,80.9088024 186.759307,79.8173208 185.100854,78.3414925 C183.442401,76.8656643 182.121801,74.9747876 181.139014,72.668806 C180.156227,70.3628243 179.664841,67.6110608 179.664841,64.4134328 L179.664841,41.538209 L168.700679,41.538209 L168.700679,35.358209 Z M230.800219,81.4776119 L230.800219,75.2976119 L246.831851,75.2976119 L246.831851,41.538209 L230.800219,41.538209 L230.800219,35.358209 L254.202716,35.358209 L254.202716,75.2976119 L269.865805,75.2976119 L269.865805,81.4776119 L230.800219,81.4776119 Z M244.344184,22.2602985 C244.344184,20.5999917 244.896993,19.1703045 246.002629,17.971194 C247.108264,16.7720836 248.520999,16.1725373 250.240876,16.1725373 C252.022178,16.1725373 253.511692,16.7720836 254.709463,17.971194 C255.907235,19.1703045 256.506112,20.5999917 256.506112,22.2602985 C256.506112,23.8591125 255.907235,25.2119348 254.709463,26.318806 C253.511692,27.4256772 252.022178,27.9791045 250.240876,27.9791045 C248.520999,27.9791045 247.108264,27.4256772 246.002629,26.318806 C244.896993,25.2119348 244.344184,23.8591125 244.344184,22.2602985 Z M286.358116,38.9555224 C288.999356,37.4182013 291.978384,36.3113467 295.29529,35.6349254 C298.612196,34.9585041 301.867629,34.6202985 305.061687,34.6202985 C308.19432,34.6202985 310.758741,35.1122339 312.755027,36.0961194 C314.751313,37.0800049 316.317607,38.3559623 317.453954,39.9240299 C318.590301,41.4920974 319.358092,43.2753631 319.757349,45.2738806 C320.156607,47.2723981 320.356232,49.2862585 320.356232,51.3155224 C320.356232,53.6522505 320.294809,56.1426733 320.171961,58.7868657 C320.049112,61.431058 319.956977,64.0752107 319.895553,66.719403 C319.895553,69.7940452 320.079823,72.7149115 320.448368,75.4820896 L326.621468,75.4820896 L326.621468,81.4776119 L314.367404,81.4776119 L313.538182,74.5597015 L313.077503,74.5597015 C312.708958,75.1131371 312.156148,75.8202942 311.419058,76.681194 C310.681968,77.5420939 309.714551,78.3876078 308.51678,79.2177612 C307.319008,80.0479146 305.860206,80.7704447 304.140329,81.3853731 C302.420451,82.0003016 300.393484,82.3077612 298.059365,82.3077612 C293.513975,82.3077612 289.920714,81.1394147 287.279474,78.8026866 C284.638234,76.4659585 283.317634,73.2683785 283.317634,69.2098507 C283.317634,66.0737157 284.008646,63.460309 285.39069,61.3695522 C286.772734,59.2787955 288.753634,57.6800055 291.33345,56.5731343 C293.913266,55.4662631 297.030497,54.8205979 300.685235,54.6361194 C304.339974,54.4516409 308.439977,54.6976086 312.985367,55.3740299 C313.292488,52.545359 313.338555,50.193293 313.123571,48.3177612 C312.908586,46.4422294 312.4172,44.9510503 311.649398,43.8441791 C310.881595,42.7373079 309.806688,41.9532859 308.424644,41.4920896 C307.0426,41.0308932 305.338104,40.8002985 303.311106,40.8002985 C300.547018,40.8002985 297.905818,41.184623 295.387426,41.9532836 C292.869035,42.7219441 290.627085,43.5059662 288.661512,44.3053731 L286.358116,38.9555224 Z M299.902081,76.1277612 C301.621958,76.1277612 303.218963,75.8510475 304.693143,75.2976119 C306.167324,74.7441763 307.457212,74.0370192 308.562848,73.1761194 C309.668483,72.3152196 310.589832,71.3774678 311.326922,70.3628358 C312.064012,69.3482039 312.616822,68.3797061 312.985367,67.4573134 L312.985367,61.000597 C309.791309,60.4471614 306.842993,60.1704478 304.140329,60.1704478 C301.437664,60.1704478 299.10358,60.4625344 297.138007,61.0467164 C295.172433,61.6308984 293.636851,62.5379043 292.531216,63.7677612 C291.42558,64.9976181 290.872771,66.5964081 290.872771,68.5641791 C290.872771,70.593443 291.563783,72.3613358 292.945827,73.8679104 C294.327871,75.3744851 296.646599,76.1277612 299.902081,76.1277612 Z M342.6531,16.9104478 L357.947645,16.9104478 L357.947645,65.9814925 C357.947645,69.7325561 358.577234,72.3767087 359.836429,73.9140299 C361.095625,75.451351 362.953679,76.22 365.410646,76.22 C367.130523,76.22 368.773596,75.9125404 370.339912,75.2976119 C371.906229,74.6826835 373.641436,73.6373208 375.545586,72.1614925 L378.862475,77.2346269 C377.879688,78.0955267 376.804781,78.8641757 375.637722,79.540597 C374.470662,80.2170183 373.272909,80.7858186 372.044425,81.2470149 C370.815941,81.7082113 369.587476,82.0617898 368.358992,82.3077612 C367.130509,82.5537326 365.994178,82.6767164 364.949967,82.6767164 C362.677272,82.6767164 360.650305,82.3846298 358.869003,81.8004478 C357.087702,81.2162657 355.598188,80.2785139 354.400416,78.9871642 C353.202645,77.6958144 352.296651,75.9894136 351.68241,73.8679104 C351.068168,71.7464073 350.761051,69.1176276 350.761051,65.9814925 L350.761051,23.0904478 L342.6531,23.0904478 L342.6531,16.9104478 Z" id="partial" fill="#FFFFFF"></path>
                <path d="M524.375641,23.920597 C523.33143,23.4901471 522.179743,23.1673145 520.920548,22.9520896 C519.661352,22.7368646 518.141126,22.6292537 516.359825,22.6292537 C513.841433,22.6292537 511.369147,23.0904431 508.942892,24.0128358 C506.516636,24.9352285 504.366822,26.4417806 502.493384,28.5325373 C500.619947,30.623294 499.115077,33.3596846 497.978729,36.741791 C496.842382,40.1238975 496.274217,44.2746023 496.274217,49.1940299 C496.274217,53.6215147 496.780959,57.4955058 497.794458,60.8161194 C498.807957,64.136733 500.220692,66.9038695 502.032705,69.1176119 C503.844719,71.3313544 506.025245,72.9916363 508.574348,74.0985075 C511.123452,75.2053787 513.964278,75.758806 517.096911,75.758806 C518.69394,75.758806 520.183454,75.6204491 521.565498,75.3437313 C522.947543,75.0670135 524.222075,74.682689 525.389135,74.1907463 L525.389135,64.9668657 L532.207185,64.9668657 L532.207185,77.4191045 L532.299321,77.6035821 C530.456595,79.0179175 528.122511,80.201637 525.296999,81.1547761 C522.471486,82.1079152 519.031784,82.5844776 514.977788,82.5844776 C511.108064,82.5844776 507.530159,81.9234394 504.243965,80.6013433 C500.957771,79.2792471 498.116945,77.2653867 495.721402,74.5597015 C493.325859,71.8540163 491.467805,68.3950957 490.147185,64.1828358 C488.826565,59.970576 488.166265,54.9743573 488.166265,49.1940299 C488.166265,43.1677311 488.903344,38.0485285 490.377525,33.8362687 C491.851705,29.6240088 493.847961,26.1804611 496.366353,23.5055224 C498.884744,20.8305836 501.817705,18.8782151 505.165323,17.6483582 C508.512941,16.4185013 512.090846,15.8035821 515.899146,15.8035821 C517.987568,15.8035821 519.799554,15.880447 521.335159,16.0341791 C522.870763,16.1879112 524.222075,16.4031329 525.389135,16.6798507 C526.556194,16.9565685 527.585034,17.3101471 528.475685,17.740597 C529.366335,18.1710469 530.241617,18.6629823 531.101555,19.2164179 L531.193691,19.2164179 L531.193691,33.7901493 L524.375641,33.7901493 L524.375641,23.920597 Z M542.710668,58.4179104 C542.710668,50.9772762 544.645501,45.0894247 548.515225,40.7541791 C552.384948,36.4189335 557.913042,34.2513433 565.099671,34.2513433 C568.969395,34.2513433 572.301607,34.8816355 575.096407,36.1422388 C577.891208,37.4028421 580.209936,39.109243 582.052662,41.2614925 C583.895387,43.4137421 585.262055,45.9656569 586.152705,48.9173134 C587.043356,51.86897 587.488675,55.035804 587.488675,58.4179104 C587.488675,62.1074811 586.997289,65.4434179 586.014502,68.4258209 C585.031715,71.4082239 583.588268,73.9447657 581.684118,76.0355224 C579.779969,78.1262791 577.430529,79.7404421 574.635728,80.8780597 C571.840928,82.0156773 568.662274,82.5844776 565.099671,82.5844776 C561.291372,82.5844776 557.974516,81.9541854 555.149003,80.6935821 C552.323491,79.4329788 549.989407,77.7265779 548.146681,75.5743284 C546.303956,73.4220788 544.937288,70.870164 544.046637,67.9185075 C543.155987,64.9668509 542.710668,61.8000169 542.710668,58.4179104 Z M550.357941,58.4179104 C550.357941,60.57016 550.61899,62.7223773 551.141095,64.8746269 C551.663201,67.0268764 552.507771,68.963872 553.67483,70.6856716 C554.84189,72.4074713 556.362115,73.7910395 558.235553,74.8364179 C560.108991,75.8817963 562.397007,76.4044776 565.099671,76.4044776 C570.013606,76.4044776 573.714358,74.8825525 576.202037,71.8386567 C578.689717,68.7947609 579.933538,64.3212235 579.933538,58.4179104 C579.933538,56.204168 579.672489,54.0365778 579.150383,51.9150746 C578.628278,49.7935715 577.768352,47.8719489 576.570581,46.1501493 C575.372809,44.4283496 573.837227,43.0447813 571.96379,41.999403 C570.090352,40.9540246 567.802336,40.4313433 565.099671,40.4313433 C560.185737,40.4313433 556.500341,41.9378954 554.043373,44.9510448 C551.586406,47.9641942 550.357941,52.4531045 550.357941,58.4179104 Z M601.309047,51.5 C601.309047,50.9465644 601.293691,50.2240343 601.262979,49.3323881 C601.232267,48.4407418 601.1862,47.518363 601.124775,46.5652239 C601.063351,45.6120848 600.986572,44.674333 600.894436,43.7519403 C600.8023,42.8295476 600.694809,42.0301526 600.571961,41.3537313 L594.398861,41.3537313 L594.398861,35.358209 L606.74506,35.358209 L607.574283,42.8295522 L608.034962,42.8295522 C608.649204,41.7841739 609.463062,40.7541842 610.476561,39.7395522 C611.49006,38.7249203 612.672458,37.8025415 614.02379,36.9723881 C615.375122,36.1422347 616.879992,35.4811965 618.538445,34.9892537 C620.196898,34.497311 621.947461,34.2513433 623.790186,34.2513433 C626.615699,34.2513433 629.118697,34.5588029 631.299255,35.1737313 C633.479814,35.7886598 635.2918,36.8801414 636.735268,38.448209 C638.178737,40.0162765 639.269,42.1377478 640.00609,44.8126866 C640.74318,47.4876253 641.11172,50.885054 641.11172,55.0050746 L641.11172,81.4776119 L633.925126,81.4776119 L633.925126,56.3886567 C633.925126,51.2847506 633.095912,47.4415055 631.437459,44.858806 C629.779006,42.2761065 626.769266,40.9847761 622.408149,40.9847761 C620.81112,40.9847761 619.260183,41.3076087 617.75529,41.9532836 C616.250398,42.5989585 614.88373,43.4444724 613.655246,44.4898507 C612.426763,45.5352291 611.351856,46.7496946 610.430493,48.1332836 C609.50913,49.5168726 608.833474,50.9773057 608.403505,52.5146269 L608.403505,81.4776119 L601.309047,81.4776119 L601.309047,51.5 Z M656.129858,81.4776119 L656.129858,75.2976119 L667.09402,75.2976119 L667.09402,41.538209 L656.129858,41.538209 L656.129858,35.358209 L667.09402,35.358209 L667.09402,32.7755224 C667.09402,26.995195 668.59889,22.8137443 671.608675,20.2310448 C674.61846,17.6483453 678.918088,16.3570149 684.507689,16.3570149 C686.534687,16.3570149 688.346673,16.4799988 689.943702,16.7259701 C691.540731,16.9719415 693.260582,17.4638769 695.103308,18.201791 L693.444863,24.1973134 C691.847834,23.5208921 690.312253,23.0750757 688.838072,22.8598507 C687.363892,22.6446258 686.01258,22.5370149 684.784096,22.5370149 C680.7301,22.5370149 677.966053,23.5362587 676.491873,25.5347761 C675.017693,27.5332936 674.280613,30.8077384 674.280613,35.358209 L693.352727,35.358209 L693.352727,41.538209 L674.280613,41.538209 L674.280613,75.2976119 L693.352727,75.2976119 L693.352727,81.4776119 L656.129858,81.4776119 Z" id="Conf" fill="#FFFFFF"></path>
                <ellipse id="Oval" fill="#A7D1F4" cx="416.146769" cy="30.7462687" rx="7.67798467" ry="7.68656716"></ellipse>
                <ellipse id="Oval-Copy" fill="#A7D1F4" cx="447.626506" cy="30.7462687" rx="7.67798467" ry="7.68656716"></ellipse>
                <ellipse id="Oval" fill="#A7D1F4" cx="416.146769" cy="76.8656716" rx="7.67798467" ry="7.68656716"></ellipse>
                <ellipse id="Oval-Copy" fill="#A7D1F4" cx="447.626506" cy="76.8656716" rx="7.67798467" ry="7.68656716"></ellipse>
            </g>
        </g>
    </g>
</svg>